<?xml version="1.0" encoding="UTF-8" standalone="no"?>
<!-- Generator: Adobe Illustrator 25.2.0, SVG Export Plug-In . SVG Version: 6.00 Build 0)  -->

<svg
   xmlns:dc="http://purl.org/dc/elements/1.1/"
   xmlns:cc="http://creativecommons.org/ns#"
   xmlns:rdf="http://www.w3.org/1999/02/22-rdf-syntax-ns#"
   xmlns:svg="http://www.w3.org/2000/svg"
   xmlns="http://www.w3.org/2000/svg"
   xmlns:sodipodi="http://sodipodi.sourceforge.net/DTD/sodipodi-0.dtd"
   xmlns:inkscape="http://www.inkscape.org/namespaces/inkscape"
   version="1.1"
   x="0px"
   y="0px"
   viewBox="0 0 1000 1068.8423"
   xml:space="preserve"
   id="svg92"
   sodipodi:docname="HBH_Logo.svg"
   width="1000"
   height="1068.8423"
   inkscape:version="0.92.4 (5da689c313, 2019-01-14)"><metadata
   id="metadata98"><rdf:RDF><cc:Work
       rdf:about=""><dc:format>image/svg+xml</dc:format><dc:type
         rdf:resource="http://purl.org/dc/dcmitype/StillImage" /><dc:title></dc:title></cc:Work></rdf:RDF></metadata><defs
   id="defs96"><style
     id="style142">.cls-1{fill:#fff}</style></defs><sodipodi:namedview
   pagecolor="#ffffff"
   bordercolor="#111111"
   borderopacity="1"
   objecttolerance="10"
   gridtolerance="10"
   guidetolerance="10"
   inkscape:pageopacity="0"
   inkscape:pageshadow="2"
   inkscape:window-width="1920"
   inkscape:window-height="1017"
   id="namedview94"
   showgrid="false"
   fit-margin-top="0"
   fit-margin-left="0"
   fit-margin-right="0"
   fit-margin-bottom="0"
   inkscape:zoom="0.16717172"
   inkscape:cx="-257.11147"
   inkscape:cy="527.72217"
   inkscape:window-x="1912"
   inkscape:window-y="-8"
   inkscape:window-maximized="1"
   inkscape:current-layer="g89"><inkscape:grid
     type="xygrid"
     id="grid228"
     originx="98.616403"
     originy="579.05001" /></sodipodi:namedview>
<style
   type="text/css"
   id="style2">
	.st0{display:none;}
	.st1{display:inline;fill:#5C5C5C;stroke:#000000;stroke-miterlimit:10;}
	.st2{fill:#F05325;}
	.st3{fill:#6D1110;}
</style>
<g
   id="Layer_2"
   class="st0"
   style="display:none"
   transform="translate(81.106403,254.65878)">
	<rect
   x="-12"
   y="-19.5"
   class="st1"
   width="514"
   height="293"
   id="rect4"
   style="display:inline;fill:#5c5c5c;stroke:#000000;stroke-miterlimit:10" />
</g>
<g
   id="Logo"
   transform="matrix(2.1739603,0,0,2.1739603,60.550358,-21.378553)">
	<g
   id="g89">
		
		
	<path
   style="fill:#000000;stroke-width:3.52669215"
   inkscape:connector-curvature="0"
   id="パス_4"
   data-name="パス 4"
   class="cls-1"
   d="m 93.793637,448.0507 h 21.325903 l 7.26852,23.90745 7.51184,-23.90745 h 17.83096 l 6.88411,23.90745 7.93859,-23.90745 h 20.16561 l -15.67614,50.96423 h -19.98224 l -8.03381,-24.95841 -6.88762,24.95841 h -20.74047 z" /><path
   style="fill:#000000;stroke-width:3.52669215"
   inkscape:connector-curvature="0"
   id="パス_5"
   data-name="パス 5"
   class="cls-1"
   d="m 237.13956,481.20512 h 18.75143 a 7.5541748,7.5541748 0 0 0 8.02322,7.68114 c 6.50323,0 6.30925,-3.82998 6.30925,-3.82998 0,0 0.19398,-3.92874 -6.96875,-5.07843 -8.03378,-1.20262 -25.14883,-2.66971 -25.14883,-16.92813 0,0 -1.53411,-17.45713 24.7609,-17.45713 18.64209,0 24.95136,8.19251 24.95136,17.75336 h -17.87328 a 6.5102738,6.5102738 0 0 0 -6.6055,-5.64269 c -3.91815,0 -6.1047,1.43888 -6.1047,3.25513 0,2.38756 1.51295,3.33272 12.41748,4.76455 12.52681,2.58507 19.70364,5.75204 19.70364,18.65973 0,12.90771 -13.48961,17.10799 -25.62496,17.10799 -12.13534,0 -26.59126,-4.03101 -26.59126,-20.28554 z" /><path
   style="fill:#000000;stroke-width:3.52669215"
   inkscape:connector-curvature="0"
   id="パス_6"
   data-name="パス 6"
   class="cls-1"
   d="m 311.94422,465.51488 h -18.69145 c 0,0 -3.96049,-20.58882 27.40946,-20.58882 0,0 23.27616,-1.34369 24.50697,16.73063 1.23082,18.07429 -1.26608,30.35423 4.10507,37.38294 h -20.00693 a 25.441557,25.441557 0 0 1 -2.77197,-4.69051 22.489718,22.489718 0 0 1 -16.83291,6.31278 c -11.47231,0 -17.93676,-6.70072 -17.93676,-15.29527 0,-8.59455 5.00085,-14.92142 21.00146,-17.78862 6.39743,-1.14972 12.13535,-1.91147 12.42806,-5.45228 0.29273,-3.54079 -4.5847,-4.20381 -5.83667,-4.20381 a 6.9158436,6.9158436 0 0 0 -7.37433,7.59296 z m 2.02435,14.30779 c -4.39427,1.91852 -2.19714,5.26183 -2.19714,5.26183 a 6.5243806,6.5243806 0 0 0 7.45896,2.29235 c 7.5577,-2.00669 6.97931,-12.04717 6.97931,-12.04717 0,0 -7.83983,2.58504 -12.24113,4.49299 z" /><path
   style="fill:#000000;stroke-width:3.52669215"
   inkscape:connector-curvature="0"
   id="長方形_422"
   data-name="長方形 422"
   class="cls-1"
   d="m 411.59446,428.51281 h 20.54298 v 14.35717 h -20.54298 z" /><path
   style="fill:#000000;stroke-width:3.52669215"
   inkscape:connector-curvature="0"
   id="長方形_423"
   data-name="長方形 423"
   class="cls-1"
   d="m 411.59446,448.0366 h 20.54298 v 50.97833 h -20.54298 z" /><path
   style="fill:#000000;stroke-width:3.52669215"
   inkscape:connector-curvature="0"
   id="パス_7"
   data-name="パス 7"
   class="cls-1"
   d="m 371.50654,499.03255 h -20.53945 v -70.53383 h 20.53945 v 31.65207 l 10.43196,-12.12124 h 24.19663 l -17.89091,19.01944 20.89566,31.96946 h -23.70643 l -11.28541,-17.17852 -2.6415,2.82136 z" /><path
   style="fill:#000000;stroke-width:3.52669215"
   inkscape:connector-curvature="0"
   id="パス_8"
   data-name="パス 8"
   class="cls-1"
   d="m -27.841976,428.50223 h 21.4140694 v 21.48462 L 14.996758,428.50223 H 41.77845 L 14.432484,456.60999 43.809823,499.0255 H 15.934859 l -16.8434874,-26.59125 -5.5404311,5.72029 v 20.88155 H -27.852559 Z" /><path
   style="fill:#000000;stroke-width:3.52669215"
   inkscape:connector-curvature="0"
   id="パス_9"
   data-name="パス 9"
   class="cls-1"
   d="M 61.506765,465.51488 H 42.83646 c 0,0 -3.964003,-20.58882 27.398877,-20.58882 0,0 23.276163,-1.34369 24.521081,16.73063 1.24493,18.07429 -1.280182,30.35423 4.101551,37.38294 H 78.840461 a 26.026989,26.026989 0 0 1 -2.771985,-4.69051 22.443869,22.443869 0 0 1 -16.822321,6.31278 c -11.475856,0 -17.93675,-6.70072 -17.93675,-15.29527 0,-8.59455 4.990267,-14.92142 20.987343,-17.78862 6.411521,-1.14972 12.149455,-1.91147 12.438648,-5.45228 0.28918,-3.54079 -4.584705,-4.20381 -5.833151,-4.20381 a 6.9264236,6.9264236 0 0 0 -7.39548,7.59296 z m 2.034902,14.30779 c -4.394259,1.91852 -2.197129,5.26183 -2.197129,5.26183 a 6.5208539,6.5208539 0 0 0 7.458961,2.29235 c 7.557695,-2.00669 6.982852,-12.04717 6.982852,-12.04717 0,0 -7.846899,2.58504 -12.244684,4.49299 z" /><path
   style="fill:#000000;stroke-width:3.52669215"
   inkscape:connector-curvature="0"
   id="パス_10"
   data-name="パス 10"
   class="cls-1"
   d="m 200.58188,465.51488 h -18.69147 c 0,0 -3.964,-20.58882 27.39889,-20.58882 0,0 23.27616,-1.34369 24.5105,16.73063 1.23433,18.07429 -1.26608,30.35423 4.1086,37.38294 h -20.01046 a 25.296963,25.296963 0 0 1 -2.77197,-4.69051 22.450924,22.450924 0 0 1 -16.82232,6.31278 c -11.47234,0 -17.93676,-6.70072 -17.93676,-15.29527 0,-8.59455 4.99026,-14.92142 20.99439,-17.78862 6.40447,-1.14972 12.14945,-1.91147 12.42454,-5.45228 0.27508,-3.54079 -4.5847,-4.20381 -5.82609,-4.20381 a 6.9264236,6.9264236 0 0 0 -7.37785,7.59296 z m 2.0349,14.30779 c -4.39073,1.91852 -2.19359,5.26183 -2.19359,5.26183 a 6.5208539,6.5208539 0 0 0 7.45541,2.29235 c 7.55771,-2.00669 6.98639,-12.04717 6.98639,-12.04717 0,0 -7.85042,2.58504 -12.25174,4.49299 z" /><path
   style="fill:#000000;stroke-width:12.7986412"
   inkscape:connector-curvature="0"
   id="パス_11"
   data-name="パス 11"
   class="cls-1"
   d="M 279.44743,219.60457 V 183.52522 H 393.08656 A 192.9523,192.9523 0 0 0 239.0677,13.469696 V 54.668501 A 152.04786,152.04786 0 0 1 341.9688,143.2095 H 239.0805 V 259.89469 H 342.00717 A 152.93097,152.93097 0 0 1 239.02934,348.8581 v 41.32678 A 192.082,192.082 0 0 0 393.07376,219.56621 Z" /><path
   style="fill:#000000;stroke-width:12.7986412"
   inkscape:connector-curvature="0"
   id="パス_12"
   data-name="パス 12"
   class="cls-1"
   d="M 222.1479,10.909977 A 194.83372,194.83372 0 0 0 201.96447,9.8348844 181.27996,181.27996 0 0 0 181.7682,10.89717 v 381.82187 a 187.51289,187.51289 0 0 0 20.19627,1.0623 201.65539,201.65539 0 0 0 20.18343,-1.0623 z" /><path
   style="fill:#000000;stroke-width:12.7986412"
   inkscape:connector-curvature="0"
   id="パス_13"
   data-name="パス 13"
   class="cls-1"
   d="M 61.71697,259.90755 H 164.88682 V 143.15834 H 62.036934 A 153.00776,153.00776 0 0 1 164.88682,54.630142 V 13.367327 A 192.0564,192.0564 0 0 0 10.855168,183.58923 H 124.5327 v 36.0538 H 10.803976 A 192.92672,192.92672 0 0 0 164.88682,390.21053 V 349.01167 A 152.06065,152.06065 0 0 1 61.71697,259.90755 Z" /></g>
</g>
</svg>