<?xml version="1.0" encoding="UTF-8"?>
<!DOCTYPE svg PUBLIC "-//W3C//DTD SVG 1.1//EN" "http://www.w3.org/Graphics/SVG/1.1/DTD/svg11.dtd">
<svg xmlns="http://www.w3.org/2000/svg" version="1.1" width="379px" height="351px" style="shape-rendering:geometricPrecision; text-rendering:geometricPrecision; image-rendering:optimizeQuality; fill-rule:evenodd; clip-rule:evenodd" xmlns:xlink="http://www.w3.org/1999/xlink">
<g><path style="opacity:0.349" fill="#265c7a" d="M 76.5,97.5 C 82.5475,96.37 88.5475,96.7033 94.5,98.5C 88.5,98.1667 82.5,97.8333 76.5,97.5 Z"/></g>
<g><path style="opacity:1" fill="#51b3dd" d="M 76.5,97.5 C 82.5,97.8333 88.5,98.1667 94.5,98.5C 105.583,101.044 115.583,105.711 124.5,112.5C 129.523,118.056 135.856,121.39 143.5,122.5C 144.492,122.328 145.158,122.662 145.5,123.5C 147.432,124.976 147.765,126.643 146.5,128.5C 145.209,128.737 144.209,128.404 143.5,127.5C 143.938,127.565 144.272,127.399 144.5,127C 135.046,122.439 125.712,117.606 116.5,112.5C 107.985,105.948 98.3186,102.282 87.5,101.5C 80.6866,100.509 73.6866,100.175 66.5,100.5C 66.8333,99.8333 67.1667,99.1667 67.5,98.5C 70.3915,97.5975 73.3915,97.2641 76.5,97.5 Z"/></g>
<g><path style="opacity:0.953" fill="#81d0ec" d="M 66.5,100.5 C 73.6866,100.175 80.6866,100.509 87.5,101.5C 80.4921,101.334 73.4921,101.5 66.5,102C 63.7206,102.561 61.054,103.394 58.5,104.5C 60.5792,102.127 63.2459,100.794 66.5,100.5 Z"/></g>
<g><path style="opacity:1" fill="#fbfdfc" d="M 99.5,113.5 C 96.303,115.558 92.9697,117.225 89.5,118.5C 76.886,120.23 64.2193,120.73 51.5,120C 49.0319,118.784 47.0319,117.117 45.5,115C 49.2311,113.441 52.2311,110.941 54.5,107.5C 54.5,107.167 54.5,106.833 54.5,106.5C 58.4903,105.837 62.4903,105.17 66.5,104.5C 69.2057,104.481 71.7057,105.148 74,106.5C 80.5439,103.745 87.3772,102.911 94.5,104C 97.0132,105.039 99.3466,106.372 101.5,108C 99.8446,109.444 99.178,111.278 99.5,113.5 Z"/></g>
<g><path style="opacity:0.898" fill="#4998b8" d="M 67.5,98.5 C 67.1667,99.1667 66.8333,99.8333 66.5,100.5C 63.2459,100.794 60.5792,102.127 58.5,104.5C 56.847,104.66 55.5137,105.326 54.5,106.5C 54.5,106.833 54.5,107.167 54.5,107.5C 52.4214,107.971 50.4214,108.637 48.5,109.5C 46.8333,110.167 45.1667,110.833 43.5,111.5C 50.277,105.108 58.277,100.775 67.5,98.5 Z"/></g>
<g><path style="opacity:1" fill="#e2f8fb" d="M 87.5,101.5 C 98.3186,102.282 107.985,105.948 116.5,112.5C 117.122,114.335 118.456,115.502 120.5,116C 119.027,116.71 118.36,117.876 118.5,119.5C 115.501,121.437 112.167,121.937 108.5,121C 104.407,117.923 104.741,115.256 109.5,113C 105.64,108.325 102.307,108.492 99.5,113.5C 99.178,111.278 99.8446,109.444 101.5,108C 99.3466,106.372 97.0132,105.039 94.5,104C 87.3772,102.911 80.5439,103.745 74,106.5C 71.7057,105.148 69.2057,104.481 66.5,104.5C 62.4903,105.17 58.4903,105.837 54.5,106.5C 55.5137,105.326 56.847,104.66 58.5,104.5C 61.054,103.394 63.7206,102.561 66.5,102C 73.4921,101.5 80.4921,101.334 87.5,101.5 Z"/></g>
<g><path style="opacity:0.471" fill="#3c7c96" d="M 43.5,111.5 C 39.8051,115.526 36.1384,119.526 32.5,123.5C 34.7774,118.223 38.4441,114.223 43.5,111.5 Z"/></g>
<g><path style="opacity:1" fill="#e3f5f9" d="M 54.5,107.5 C 52.2311,110.941 49.2311,113.441 45.5,115C 47.0319,117.117 49.0319,118.784 51.5,120C 64.2193,120.73 76.886,120.23 89.5,118.5C 85.1004,120.051 80.4338,120.884 75.5,121C 65.7934,121.557 56.1267,121.557 46.5,121C 38.4104,126.013 33.4104,133.18 31.5,142.5C 30.8826,142.611 30.3826,142.944 30,143.5C 29.5026,140.854 29.3359,138.187 29.5,135.5C 30.8916,132.993 31.8916,130.327 32.5,127.5C 36.777,120.557 42.1104,114.557 48.5,109.5C 50.4214,108.637 52.4214,107.971 54.5,107.5 Z"/></g>
<g><path style="opacity:0.929" fill="#7ac4e0" d="M 48.5,109.5 C 42.1104,114.557 36.777,120.557 32.5,127.5C 32.1667,127.5 31.8333,127.5 31.5,127.5C 31.8333,126.167 32.1667,124.833 32.5,123.5C 36.1384,119.526 39.8051,115.526 43.5,111.5C 45.1667,110.833 46.8333,110.167 48.5,109.5 Z"/></g>
<g><path style="opacity:1" fill="#388bb6" d="M 124.5,112.5 C 131.026,115.595 137.359,118.928 143.5,122.5C 135.856,121.39 129.523,118.056 124.5,112.5 Z"/></g>
<g><path style="opacity:1" fill="#ade5f4" d="M 116.5,112.5 C 125.712,117.606 135.046,122.439 144.5,127C 144.272,127.399 143.938,127.565 143.5,127.5C 140.933,127.279 138.599,126.612 136.5,125.5C 136.158,124.662 135.492,124.328 134.5,124.5C 130.143,122.426 125.643,120.426 121,118.5C 120.098,118.743 119.265,119.077 118.5,119.5C 118.36,117.876 119.027,116.71 120.5,116C 118.456,115.502 117.122,114.335 116.5,112.5 Z"/></g>
<g><path style="opacity:1" fill="#afd1e9" d="M 118.5,119.5 C 118.511,121.017 119.177,122.184 120.5,123C 125.102,124.122 129.768,124.622 134.5,124.5C 135.492,124.328 136.158,124.662 136.5,125.5C 126.8,125.353 117.134,125.853 107.5,127C 98.6477,129.44 90.3144,132.94 82.5,137.5C 82.1667,137.5 81.8333,137.5 81.5,137.5C 77.4511,134.804 73.7844,131.637 70.5,128C 65.3665,127.492 60.3665,128.159 55.5,130C 46.4073,134.428 39.2406,140.928 34,149.5C 33.6924,148.692 33.1924,148.025 32.5,147.5C 31.513,150.768 31.1796,154.102 31.5,157.5C 31.5,159.833 31.5,162.167 31.5,164.5C 30.257,157.308 30.257,149.975 31.5,142.5C 33.4104,133.18 38.4104,126.013 46.5,121C 56.1267,121.557 65.7934,121.557 75.5,121C 80.4338,120.884 85.1004,120.051 89.5,118.5C 92.9697,117.225 96.303,115.558 99.5,113.5C 102.307,108.492 105.64,108.325 109.5,113C 104.741,115.256 104.407,117.923 108.5,121C 112.167,121.937 115.501,121.437 118.5,119.5 Z"/></g>
<g><path style="opacity:1" fill="#6fb8d5" d="M 134.5,124.5 C 129.768,124.622 125.102,124.122 120.5,123C 119.177,122.184 118.511,121.017 118.5,119.5C 119.265,119.077 120.098,118.743 121,118.5C 125.643,120.426 130.143,122.426 134.5,124.5 Z"/></g>
<g><path style="opacity:0.902" fill="#b74855" d="M 196.5,125.5 C 198.5,125.5 200.5,125.5 202.5,125.5C 202.5,125.833 202.5,126.167 202.5,126.5C 198.394,126.74 194.394,127.407 190.5,128.5C 189.167,128.5 187.833,128.5 186.5,128.5C 189.505,126.723 192.838,125.723 196.5,125.5 Z"/></g>
<g><path style="opacity:0.404" fill="#8f1a1f" d="M 234.5,126.5 C 235.167,127.167 235.833,127.833 236.5,128.5C 235.167,128.5 233.833,128.5 232.5,128.5C 231.737,127.732 230.737,127.232 229.5,127C 220.528,125.96 211.528,125.46 202.5,125.5C 200.5,125.5 198.5,125.5 196.5,125.5C 209.124,122.81 221.79,123.144 234.5,126.5 Z"/></g>
<g><path style="opacity:1" fill="#fb7587" d="M 202.5,126.5 C 202.5,127.167 202.5,127.833 202.5,128.5C 197.296,128.874 192.296,129.874 187.5,131.5C 188.306,130.272 189.306,129.272 190.5,128.5C 194.394,127.407 198.394,126.74 202.5,126.5 Z"/></g>
<g><path style="opacity:1" fill="#fdfdfc" d="M 129.5,128.5 C 134.183,128.367 138.516,129.367 142.5,131.5C 141.632,144.629 136.798,155.962 128,165.5C 127.503,162.854 127.336,160.187 127.5,157.5C 126.209,157.263 125.209,157.596 124.5,158.5C 123.833,159.5 123.167,160.5 122.5,161.5C 116.436,172.732 107.769,181.565 96.5,188C 69.2956,197.234 53.2956,187.734 48.5,159.5C 52.3714,159.815 56.0381,159.482 59.5,158.5C 60.1667,157.833 60.8333,157.167 61.5,156.5C 65.314,156.349 66.9807,154.349 66.5,150.5C 66.5,149.5 66.5,148.5 66.5,147.5C 71.2911,145.899 76.2911,144.233 81.5,142.5C 83.3084,142.491 84.9751,142.991 86.5,144C 85.3463,144.914 85.513,145.747 87,146.5C 88.0793,144.606 89.4126,144.273 91,145.5C 91.1773,149.356 91.6773,153.023 92.5,156.5C 92.6105,161.245 94.9439,164.078 99.5,165C 108.189,166.9 114.689,164.067 119,156.5C 120.644,152.78 121.81,148.947 122.5,145C 119.952,143.078 117.952,140.745 116.5,138C 111.008,139.026 105.674,138.359 100.5,136C 102.349,134.907 104.016,133.574 105.5,132C 113.449,130.528 121.449,129.361 129.5,128.5 Z"/></g>
<g><path style="opacity:1" fill="#eaadb2" d="M 186.5,128.5 C 187.833,128.5 189.167,128.5 190.5,128.5C 189.306,129.272 188.306,130.272 187.5,131.5C 186.209,131.737 185.209,131.404 184.5,130.5C 184.5,130.167 184.5,129.833 184.5,129.5C 185.167,129.167 185.833,128.833 186.5,128.5 Z"/></g>
<g><path style="opacity:1" fill="#d22c30" d="M 202.5,128.5 C 205.053,129.255 207.72,129.922 210.5,130.5C 209.692,132.3 210.192,133.967 212,135.5C 212.497,138.146 212.664,140.813 212.5,143.5C 212.083,140.841 211.083,138.508 209.5,136.5C 209.5,135.5 209.5,134.5 209.5,133.5C 208.5,133.5 207.5,133.5 206.5,133.5C 205.486,132.235 203.986,131.569 202,131.5C 200.5,131.667 199,131.833 197.5,132C 196.944,132.383 196.611,132.883 196.5,133.5C 195.167,134.167 194.167,135.167 193.5,136.5C 188.528,141.073 184.862,140.24 182.5,134C 182.387,132.301 183.053,131.134 184.5,130.5C 185.209,131.404 186.209,131.737 187.5,131.5C 192.296,129.874 197.296,128.874 202.5,128.5 Z"/></g>
<g><path style="opacity:1" fill="#b0b1a0" d="M 136.5,125.5 C 138.599,126.612 140.933,127.279 143.5,127.5C 144.209,128.404 145.209,128.737 146.5,128.5C 146.802,131.059 146.468,133.393 145.5,135.5C 145.262,133.596 144.262,132.262 142.5,131.5C 138.516,129.367 134.183,128.367 129.5,128.5C 121.874,127.091 114.207,127.591 106.5,130C 98.7366,132.851 91.4033,136.351 84.5,140.5C 85.6602,138.797 84.9935,138.131 82.5,138.5C 82.5,138.167 82.5,137.833 82.5,137.5C 90.3144,132.94 98.6477,129.44 107.5,127C 117.134,125.853 126.8,125.353 136.5,125.5 Z"/></g>
<g><path style="opacity:1" fill="#f43641" d="M 202.5,125.5 C 211.528,125.46 220.528,125.96 229.5,127C 230.737,127.232 231.737,127.732 232.5,128.5C 235.236,131.032 238.57,132.365 242.5,132.5C 242.5,133.5 242.5,134.5 242.5,135.5C 242.5,135.833 242.5,136.167 242.5,136.5C 241.833,136.5 241.5,136.833 241.5,137.5C 240.883,137.611 240.383,137.944 240,138.5C 239.506,136.866 239.34,135.199 239.5,133.5C 236.167,133.5 232.833,133.5 229.5,133.5C 223.415,131.56 217.082,130.56 210.5,130.5C 207.72,129.922 205.053,129.255 202.5,128.5C 202.5,127.833 202.5,127.167 202.5,126.5C 202.5,126.167 202.5,125.833 202.5,125.5 Z"/></g>
<g><path style="opacity:1" fill="#ef5a69" d="M 232.5,128.5 C 233.833,128.5 235.167,128.5 236.5,128.5C 241.074,130.804 245.741,132.804 250.5,134.5C 247.721,134.279 245.054,134.612 242.5,135.5C 242.5,134.5 242.5,133.5 242.5,132.5C 238.57,132.365 235.236,131.032 232.5,128.5 Z"/></g>
<g><path style="opacity:0.549" fill="#771a23" d="M 234.5,126.5 C 241.003,127.759 247.003,130.093 252.5,133.5C 252.833,134.167 253.167,134.833 253.5,135.5C 252.391,135.443 251.391,135.11 250.5,134.5C 245.741,132.804 241.074,130.804 236.5,128.5C 235.833,127.833 235.167,127.167 234.5,126.5 Z"/></g>
<g><path style="opacity:1" fill="#6e241e" d="M 206.5,133.5 C 203.5,133.5 200.5,133.5 197.5,133.5C 197.167,133.5 196.833,133.5 196.5,133.5C 196.611,132.883 196.944,132.383 197.5,132C 199,131.833 200.5,131.667 202,131.5C 203.986,131.569 205.486,132.235 206.5,133.5 Z"/></g>
<g><path style="opacity:1" fill="#7db6dd" d="M 81.5,137.5 C 71.4728,138.525 61.4728,139.692 51.5,141C 42.4949,145.765 37.1616,153.265 35.5,163.5C 34.4571,161.151 33.1238,159.151 31.5,157.5C 31.1796,154.102 31.513,150.768 32.5,147.5C 33.1924,148.025 33.6924,148.692 34,149.5C 39.2406,140.928 46.4073,134.428 55.5,130C 60.3665,128.159 65.3665,127.492 70.5,128C 73.7844,131.637 77.4511,134.804 81.5,137.5 Z"/></g>
<g><path style="opacity:0.58" fill="#541215" d="M 181.5,131.5 C 180.61,133.782 180.444,136.115 181,138.5C 182.302,139.085 183.469,139.751 184.5,140.5C 181.68,140.913 179.68,139.913 178.5,137.5C 178.755,135.033 179.755,133.033 181.5,131.5 Z"/></g>
<g><path style="opacity:1" fill="#b9262a" d="M 229.5,133.5 C 232.833,133.5 236.167,133.5 239.5,133.5C 239.34,135.199 239.506,136.866 240,138.5C 240.383,137.944 240.883,137.611 241.5,137.5C 241.5,138.833 241.5,140.167 241.5,141.5C 240.833,141.5 240.167,141.5 239.5,141.5C 238.631,139.283 238.298,136.95 238.5,134.5C 235.691,134.588 234.358,136.088 234.5,139C 234.743,142.003 236.41,143.17 239.5,142.5C 238.432,143.434 237.099,143.768 235.5,143.5C 227.919,145.996 225.419,143.329 228,135.5C 228.383,134.944 228.883,134.611 229.5,134.5C 229.5,134.167 229.5,133.833 229.5,133.5 Z"/></g>
<g><path style="opacity:0.463" fill="#421d1c" d="M 252.5,133.5 C 255.485,134.326 258.151,135.659 260.5,137.5C 259.167,137.5 258.5,138.167 258.5,139.5C 258.5,140.833 258.5,142.167 258.5,143.5C 258.371,145.216 258.038,146.883 257.5,148.5C 255.379,148.675 253.379,148.341 251.5,147.5C 251.5,147.167 251.5,146.833 251.5,146.5C 253.167,146.5 254.833,146.5 256.5,146.5C 256.806,143.615 256.473,140.948 255.5,138.5C 255.715,136.821 255.048,135.821 253.5,135.5C 253.167,134.833 252.833,134.167 252.5,133.5 Z"/></g>
<g><path style="opacity:1" fill="#faf6ec" d="M 129.5,128.5 C 121.449,129.361 113.449,130.528 105.5,132C 104.016,133.574 102.349,134.907 100.5,136C 105.674,138.359 111.008,139.026 116.5,138C 117.952,140.745 119.952,143.078 122.5,145C 121.81,148.947 120.644,152.78 119,156.5C 114.689,164.067 108.189,166.9 99.5,165C 94.9439,164.078 92.6105,161.245 92.5,156.5C 91.6773,153.023 91.1773,149.356 91,145.5C 89.4126,144.273 88.0793,144.606 87,146.5C 85.513,145.747 85.3463,144.914 86.5,144C 84.9751,142.991 83.3084,142.491 81.5,142.5C 81.5,142.167 81.5,141.833 81.5,141.5C 82.391,140.89 83.391,140.557 84.5,140.5C 91.4033,136.351 98.7366,132.851 106.5,130C 114.207,127.591 121.874,127.091 129.5,128.5 Z"/></g>
<g><path style="opacity:1" fill="#423c3d" d="M 197.5,133.5 C 200.5,133.5 203.5,133.5 206.5,133.5C 208.168,135.479 208.834,137.812 208.5,140.5C 206.821,140.715 205.821,140.048 205.5,138.5C 203.973,138.427 202.973,139.094 202.5,140.5C 199.477,138.839 197.143,139.505 195.5,142.5C 195.167,142.5 194.833,142.5 194.5,142.5C 193.924,138.888 194.924,135.888 197.5,133.5 Z"/></g>
<g><path style="opacity:1" fill="#898c8f" d="M 205.5,138.5 C 203.975,136.964 201.975,135.964 199.5,135.5C 202.83,133.828 205.497,134.495 207.5,137.5C 207.043,138.298 206.376,138.631 205.5,138.5 Z"/></g>
<g><path style="opacity:1" fill="#eb9297" d="M 253.5,135.5 C 255.048,135.821 255.715,136.821 255.5,138.5C 254.094,138.027 253.427,137.027 253.5,135.5 Z"/></g>
<g><path style="opacity:1" fill="#3c1213" d="M 196.5,133.5 C 196.833,133.5 197.167,133.5 197.5,133.5C 194.924,135.888 193.924,138.888 194.5,142.5C 194.5,142.833 194.5,143.167 194.5,143.5C 192.585,143.784 190.919,143.451 189.5,142.5C 193.068,142.241 194.401,140.241 193.5,136.5C 194.167,135.167 195.167,134.167 196.5,133.5 Z"/></g>
<g><path style="opacity:1" fill="#dd1f1e" d="M 210.5,130.5 C 217.082,130.56 223.415,131.56 229.5,133.5C 229.5,133.833 229.5,134.167 229.5,134.5C 228.883,134.611 228.383,134.944 228,135.5C 225.419,143.329 227.919,145.996 235.5,143.5C 236.263,144.268 237.263,144.768 238.5,145C 237.429,145.852 236.429,146.685 235.5,147.5C 229.158,147.666 222.825,147.5 216.5,147C 214.676,146.34 213.343,145.173 212.5,143.5C 212.664,140.813 212.497,138.146 212,135.5C 210.192,133.967 209.692,132.3 210.5,130.5 Z"/></g>
<g><path style="opacity:1" fill="#7f1a1f" d="M 184.5,129.5 C 184.5,129.833 184.5,130.167 184.5,130.5C 183.053,131.134 182.387,132.301 182.5,134C 184.862,140.24 188.528,141.073 193.5,136.5C 194.401,140.241 193.068,142.241 189.5,142.5C 187.694,141.976 186.028,141.309 184.5,140.5C 183.469,139.751 182.302,139.085 181,138.5C 180.444,136.115 180.61,133.782 181.5,131.5C 181.973,130.094 182.973,129.427 184.5,129.5 Z"/></g>
<g><path style="opacity:1" fill="#5f0705" d="M 229.5,134.5 C 230.748,135.334 231.415,136.667 231.5,138.5C 231.038,143.589 230.038,143.755 228.5,139C 228.773,137.467 229.106,135.967 229.5,134.5 Z"/></g>
<g><path style="opacity:1" fill="#84100b" d="M 242.5,136.5 C 244.308,137.918 244.975,139.918 244.5,142.5C 243.209,142.737 242.209,142.404 241.5,141.5C 241.5,140.167 241.5,138.833 241.5,137.5C 241.5,136.833 241.833,136.5 242.5,136.5 Z"/></g>
<g><path style="opacity:1" fill="#6c7076" d="M 202.5,140.5 C 201.744,143.003 200.744,145.337 199.5,147.5C 199.5,145.833 199.5,144.167 199.5,142.5C 198.167,142.5 196.833,142.5 195.5,142.5C 197.143,139.505 199.477,138.839 202.5,140.5 Z"/></g>
<g><path style="opacity:1" fill="#790c0f" d="M 239.5,141.5 C 239.5,141.833 239.5,142.167 239.5,142.5C 236.41,143.17 234.743,142.003 234.5,139C 234.358,136.088 235.691,134.588 238.5,134.5C 238.298,136.95 238.631,139.283 239.5,141.5 Z"/></g>
<g><path style="opacity:1" fill="#c4beb8" d="M 258.5,139.5 C 260.213,140.635 260.88,142.302 260.5,144.5C 259.833,144.167 259.167,143.833 258.5,143.5C 258.5,142.167 258.5,140.833 258.5,139.5 Z"/></g>
<g><path style="opacity:1" fill="#667d88" d="M 82.5,138.5 C 84.9935,138.131 85.6602,138.797 84.5,140.5C 83.391,140.557 82.391,140.89 81.5,141.5C 76.1556,141.816 70.8222,142.316 65.5,143C 64.2625,143.232 63.2625,143.732 62.5,144.5C 59.5,144.5 56.5,144.5 53.5,144.5C 58.6727,142.69 64.006,141.356 69.5,140.5C 74.0787,140.847 78.412,140.18 82.5,138.5 Z"/></g>
<g><path style="opacity:1" fill="#decab0" d="M 115.5,142.5 C 111.154,142.334 106.821,142.501 102.5,143C 99.9361,144.396 97.2695,145.563 94.5,146.5C 96.978,144.197 99.6447,142.031 102.5,140C 105.833,139.333 109.167,139.333 112.5,140C 114.119,140.236 115.119,141.069 115.5,142.5 Z"/></g>
<g><path style="opacity:1" fill="#21283f" d="M 177.5,137.5 C 177.833,137.5 178.167,137.5 178.5,137.5C 179.68,139.913 181.68,140.913 184.5,140.5C 186.028,141.309 187.694,141.976 189.5,142.5C 190.919,143.451 192.585,143.784 194.5,143.5C 194.027,144.906 193.027,145.573 191.5,145.5C 190.167,144.833 188.833,144.167 187.5,143.5C 187.167,143.5 186.833,143.5 186.5,143.5C 185.432,142.566 184.099,142.232 182.5,142.5C 182.737,143.791 182.404,144.791 181.5,145.5C 180.833,145.167 180.167,144.833 179.5,144.5C 179.204,142.597 178.537,140.93 177.5,139.5C 177.5,138.833 177.5,138.167 177.5,137.5 Z"/></g>
<g><path style="opacity:1" fill="#a3e0f4" d="M 31.5,127.5 C 31.8333,127.5 32.1667,127.5 32.5,127.5C 31.8916,130.327 30.8916,132.993 29.5,135.5C 27.8906,138.149 27.0572,141.149 27,144.5C 26.5006,149.823 26.334,155.156 26.5,160.5C 25.5184,157.038 25.185,153.371 25.5,149.5C 25.0169,141.427 27.0169,134.094 31.5,127.5 Z"/></g>
<g><path style="opacity:1" fill="#cfae83" d="M 115.5,142.5 C 116.167,142.833 116.833,143.167 117.5,143.5C 117.99,149.349 116.657,154.682 113.5,159.5C 108.053,163.98 102.053,164.646 95.5,161.5C 94.3037,159.855 93.3037,158.189 92.5,156.5C 92.1524,152.915 92.819,149.582 94.5,146.5C 97.2695,145.563 99.9361,144.396 102.5,143C 106.821,142.501 111.154,142.334 115.5,142.5 Z"/></g>
<g><path style="opacity:1" fill="#d22c34" d="M 250.5,134.5 C 251.391,135.11 252.391,135.443 253.5,135.5C 253.427,137.027 254.094,138.027 255.5,138.5C 255.5,140.5 255.5,142.5 255.5,144.5C 253.265,144.795 251.265,144.461 249.5,143.5C 247.473,143.338 245.473,143.505 243.5,144C 242.944,144.383 242.611,144.883 242.5,145.5C 240.442,146.933 238.108,147.6 235.5,147.5C 236.429,146.685 237.429,145.852 238.5,145C 237.263,144.768 236.263,144.268 235.5,143.5C 237.099,143.768 238.432,143.434 239.5,142.5C 239.5,142.167 239.5,141.833 239.5,141.5C 240.167,141.5 240.833,141.5 241.5,141.5C 242.209,142.404 243.209,142.737 244.5,142.5C 244.975,139.918 244.308,137.918 242.5,136.5C 242.5,136.167 242.5,135.833 242.5,135.5C 245.054,134.612 247.721,134.279 250.5,134.5 Z"/></g>
<g><path style="opacity:1" fill="#dc1f23" d="M 249.5,143.5 C 248.432,142.566 247.099,142.232 245.5,142.5C 245.5,140.167 245.5,137.833 245.5,135.5C 250.833,135.5 253.5,138.167 253.5,143.5C 252.167,143.5 250.833,143.5 249.5,143.5 Z"/></g>
<g><path style="opacity:0.075" fill="#353537" d="M 260.5,137.5 C 262.387,138.768 263.387,140.601 263.5,143C 263.057,144.825 262.723,146.658 262.5,148.5C 261.833,148.5 261.167,148.5 260.5,148.5C 260.5,147.167 260.5,145.833 260.5,144.5C 260.88,142.302 260.213,140.635 258.5,139.5C 258.5,138.167 259.167,137.5 260.5,137.5 Z"/></g>
<g><path style="opacity:1" fill="#567e9e" d="M 69.5,140.5 C 64.006,141.356 58.6727,142.69 53.5,144.5C 51.7697,145.026 50.4363,146.026 49.5,147.5C 46.8342,149.489 45.1675,152.156 44.5,155.5C 43.8333,155.5 43.1667,155.5 42.5,155.5C 44.5921,147.259 49.9255,142.426 58.5,141C 62.1516,140.501 65.8183,140.335 69.5,140.5 Z"/></g>
<g><path style="opacity:1" fill="#857b69" d="M 81.5,141.5 C 81.5,141.833 81.5,142.167 81.5,142.5C 76.2911,144.233 71.2911,145.899 66.5,147.5C 65.7638,145.771 64.4305,144.771 62.5,144.5C 63.2625,143.732 64.2625,143.232 65.5,143C 70.8222,142.316 76.1556,141.816 81.5,141.5 Z"/></g>
<g><path style="opacity:1" fill="#751d21" d="M 255.5,138.5 C 256.473,140.948 256.806,143.615 256.5,146.5C 254.833,146.5 253.167,146.5 251.5,146.5C 248.713,145.523 245.713,145.19 242.5,145.5C 242.611,144.883 242.944,144.383 243.5,144C 245.473,143.505 247.473,143.338 249.5,143.5C 251.265,144.461 253.265,144.795 255.5,144.5C 255.5,142.5 255.5,140.5 255.5,138.5 Z"/></g>
<g><path style="opacity:1" fill="#60191c" d="M 206.5,133.5 C 207.5,133.5 208.5,133.5 209.5,133.5C 209.5,134.5 209.5,135.5 209.5,136.5C 209.956,140.602 209.289,144.435 207.5,148C 207.905,148.945 208.572,149.612 209.5,150C 218.348,149.966 227.015,149.132 235.5,147.5C 238.108,147.6 240.442,146.933 242.5,145.5C 241.657,147.173 240.324,148.34 238.5,149C 233.166,149.567 227.833,150.067 222.5,150.5C 219.813,150.336 217.146,150.503 214.5,151C 213.584,151.278 212.918,151.778 212.5,152.5C 209.759,152.293 207.426,151.293 205.5,149.5C 206.759,146.634 207.759,143.634 208.5,140.5C 208.834,137.812 208.168,135.479 206.5,133.5 Z"/></g>
<g><path style="opacity:1" fill="#a1191a" d="M 209.5,136.5 C 211.083,138.508 212.083,140.841 212.5,143.5C 213.343,145.173 214.676,146.34 216.5,147C 222.825,147.5 229.158,147.666 235.5,147.5C 227.015,149.132 218.348,149.966 209.5,150C 208.572,149.612 207.905,148.945 207.5,148C 209.289,144.435 209.956,140.602 209.5,136.5 Z"/></g>
<g><path style="opacity:1" fill="#626b73" d="M 251.5,146.5 C 251.5,146.833 251.5,147.167 251.5,147.5C 248.976,148.8 246.309,148.8 243.5,147.5C 246.086,146.52 248.753,146.187 251.5,146.5 Z"/></g>
<g><path style="opacity:1" fill="#777e79" d="M 258.5,143.5 C 259.167,143.833 259.833,144.167 260.5,144.5C 260.5,145.833 260.5,147.167 260.5,148.5C 259.5,148.5 258.5,148.5 257.5,148.5C 258.038,146.883 258.371,145.216 258.5,143.5 Z"/></g>
<g><path style="opacity:0.922" fill="#4d8fb2" d="M 32.5,123.5 C 32.1667,124.833 31.8333,126.167 31.5,127.5C 27.0169,134.094 25.0169,141.427 25.5,149.5C 24.8333,149.167 24.1667,148.833 23.5,148.5C 23.9487,139.147 26.9487,130.813 32.5,123.5 Z"/></g>
<g><path style="opacity:1" fill="#a3a2a3" d="M 194.5,142.5 C 194.833,142.5 195.167,142.5 195.5,142.5C 196.833,142.5 198.167,142.5 199.5,142.5C 199.5,144.167 199.5,145.833 199.5,147.5C 197.455,148.923 196.455,150.923 196.5,153.5C 195.075,155.031 194.409,154.698 194.5,152.5C 194.44,151.957 194.107,151.624 193.5,151.5C 192.999,153.655 191.999,155.322 190.5,156.5C 189.227,154.287 188.227,151.954 187.5,149.5C 188.688,148.316 189.855,148.316 191,149.5C 191.49,148.207 191.657,146.873 191.5,145.5C 193.027,145.573 194.027,144.906 194.5,143.5C 194.5,143.167 194.5,142.833 194.5,142.5 Z"/></g>
<g><path style="opacity:1" fill="#2b2527" d="M 205.5,138.5 C 205.821,140.048 206.821,140.715 208.5,140.5C 207.759,143.634 206.759,146.634 205.5,149.5C 203.801,149.34 202.134,149.506 200.5,150C 199.295,151.376 197.962,152.542 196.5,153.5C 196.455,150.923 197.455,148.923 199.5,147.5C 200.744,145.337 201.744,143.003 202.5,140.5C 202.973,139.094 203.973,138.427 205.5,138.5 Z"/></g>
<g><path style="opacity:1" fill="#2d526b" d="M 186.5,143.5 C 185.5,143.5 184.5,143.5 183.5,143.5C 183.5,145.167 183.5,146.833 183.5,148.5C 186.91,148.616 188.244,146.95 187.5,143.5C 188.833,144.167 190.167,144.833 191.5,145.5C 191.657,146.873 191.49,148.207 191,149.5C 189.855,148.316 188.688,148.316 187.5,149.5C 186.5,150.5 185.5,151.5 184.5,152.5C 184.5,153.167 184.167,153.5 183.5,153.5C 181.954,151.118 181.287,148.451 181.5,145.5C 182.404,144.791 182.737,143.791 182.5,142.5C 184.099,142.232 185.432,142.566 186.5,143.5 Z"/></g>
<g><path style="opacity:1" fill="#0f72af" d="M 186.5,143.5 C 186.833,143.5 187.167,143.5 187.5,143.5C 188.244,146.95 186.91,148.616 183.5,148.5C 183.5,146.833 183.5,145.167 183.5,143.5C 184.5,143.5 185.5,143.5 186.5,143.5 Z"/></g>
<g><path style="opacity:1" fill="#4a4647" d="M 53.5,144.5 C 56.5,144.5 59.5,144.5 62.5,144.5C 64.4305,144.771 65.7638,145.771 66.5,147.5C 66.5,148.5 66.5,149.5 66.5,150.5C 65.5847,153.086 63.918,155.086 61.5,156.5C 60.8333,157.167 60.1667,157.833 59.5,158.5C 55.8333,158.5 52.1667,158.5 48.5,158.5C 51.6414,157.679 54.9748,157.179 58.5,157C 59.9603,155.418 61.627,154.085 63.5,153C 60.1966,147.998 55.53,146.165 49.5,147.5C 50.4363,146.026 51.7697,145.026 53.5,144.5 Z"/></g>
<g><path style="opacity:1" fill="#cef2fb" d="M 29.5,135.5 C 29.3359,138.187 29.5026,140.854 30,143.5C 30.3826,142.944 30.8826,142.611 31.5,142.5C 30.257,149.975 30.257,157.308 31.5,164.5C 33.3561,171.725 36.0228,178.725 39.5,185.5C 37.1904,182.898 35.3571,179.898 34,176.5C 30.7005,166.785 28.7005,156.785 28,146.5C 27.3768,154.865 27.7102,163.198 29,171.5C 32.5164,177.558 35.3497,183.891 37.5,190.5C 30.4908,181.799 26.8242,171.799 26.5,160.5C 26.334,155.156 26.5006,149.823 27,144.5C 27.0572,141.149 27.8906,138.149 29.5,135.5 Z"/></g>
<g><path style="opacity:1" fill="#d9c4a5" d="M 117.5,143.5 C 120.86,149.843 119.527,155.177 113.5,159.5C 116.657,154.682 117.99,149.349 117.5,143.5 Z"/></g>
<g><path style="opacity:1" fill="#b5b5b7" d="M 149.5,149.5 C 144.619,162.643 138.286,174.976 130.5,186.5C 130.607,184.621 130.107,184.288 129,185.5C 124.528,191.284 120.028,196.951 115.5,202.5C 113.167,204.5 110.833,206.5 108.5,208.5C 108.062,208.565 107.728,208.399 107.5,208C 108.823,207.184 109.489,206.017 109.5,204.5C 129.39,182.38 143.223,157.047 151,128.5C 151.097,134.756 150.264,140.923 148.5,147C 148.528,148.07 148.861,148.903 149.5,149.5 Z"/></g>
<g><path style="opacity:1" fill="#0b4972" d="M 257.5,148.5 C 258.5,148.5 259.5,148.5 260.5,148.5C 260.389,149.117 260.056,149.617 259.5,150C 261.852,150.24 263.852,151.073 265.5,152.5C 254.531,151.593 243.531,151.26 232.5,151.5C 241.05,151.155 249.383,150.155 257.5,148.5 Z"/></g>
<g><path style="opacity:1" fill="#0471a1" d="M 232.5,151.5 C 243.531,151.26 254.531,151.593 265.5,152.5C 266.791,152.263 267.791,152.596 268.5,153.5C 252.503,152.235 236.503,152.235 220.5,153.5C 224.21,151.864 228.21,151.198 232.5,151.5 Z"/></g>
<g><path style="opacity:1" fill="#132840" d="M 242.5,145.5 C 245.713,145.19 248.713,145.523 251.5,146.5C 248.753,146.187 246.086,146.52 243.5,147.5C 246.309,148.8 248.976,148.8 251.5,147.5C 253.379,148.341 255.379,148.675 257.5,148.5C 249.383,150.155 241.05,151.155 232.5,151.5C 228.21,151.198 224.21,151.864 220.5,153.5C 219.167,153.5 217.833,153.5 216.5,153.5C 214.973,153.427 213.973,154.094 213.5,155.5C 211.933,156.681 211.099,158.347 211,160.5C 210.051,157.66 208.551,155.16 206.5,153C 202.623,151.784 199.957,152.951 198.5,156.5C 197.609,157.11 196.609,157.443 195.5,157.5C 196.234,156.292 196.567,154.959 196.5,153.5C 197.962,152.542 199.295,151.376 200.5,150C 202.134,149.506 203.801,149.34 205.5,149.5C 207.426,151.293 209.759,152.293 212.5,152.5C 216.04,152.247 219.373,151.581 222.5,150.5C 227.833,150.067 233.166,149.567 238.5,149C 240.324,148.34 241.657,147.173 242.5,145.5 Z"/></g>
<g><path style="opacity:1" fill="#361729" d="M 222.5,150.5 C 219.373,151.581 216.04,152.247 212.5,152.5C 212.918,151.778 213.584,151.278 214.5,151C 217.146,150.503 219.813,150.336 222.5,150.5 Z"/></g>
<g><path style="opacity:1" fill="#65543e" d="M 104.5,156.5 C 104.218,155.222 103.551,154.222 102.5,153.5C 103.534,151.183 102.534,150.183 99.5,150.5C 97.7202,151.99 97.0535,153.99 97.5,156.5C 96.3775,154.712 96.2109,152.712 97,150.5C 103.488,148.174 105.988,150.174 104.5,156.5 Z"/></g>
<g><path style="opacity:1" fill="#b2b2b2" d="M 99.5,150.5 C 102.534,150.183 103.534,151.183 102.5,153.5C 101.5,153.5 100.5,153.5 99.5,153.5C 99.5,152.5 99.5,151.5 99.5,150.5 Z"/></g>
<g><path style="opacity:1" fill="#5e6664" d="M 194.5,152.5 C 193.698,153.952 193.198,155.618 193,157.5C 191.539,158.883 190.706,158.549 190.5,156.5C 191.999,155.322 192.999,153.655 193.5,151.5C 194.107,151.624 194.44,151.957 194.5,152.5 Z"/></g>
<g><path style="opacity:1" fill="#a9a9aa" d="M 184.5,152.5 C 187.987,153.445 189.32,155.778 188.5,159.5C 187.209,159.737 186.209,159.404 185.5,158.5C 185.719,157.325 185.386,156.325 184.5,155.5C 183.692,157.423 183.192,159.423 183,161.5C 182.292,160.619 181.458,159.953 180.5,159.5C 180.028,156.642 181.028,154.642 183.5,153.5C 184.167,153.5 184.5,153.167 184.5,152.5 Z"/></g>
<g><path style="opacity:1" fill="#0574be" d="M 322.5,154.5 C 321.26,156.988 319.26,158.821 316.5,160C 311.511,160.499 306.511,160.666 301.5,160.5C 300.209,160.737 299.209,160.404 298.5,159.5C 299.333,157.171 301,155.671 303.5,155C 307.853,154.755 312.187,154.755 316.5,155C 317.38,153.644 317.714,152.144 317.5,150.5C 320.546,150.183 322.213,151.516 322.5,154.5 Z"/></g>
<g><path style="opacity:1" fill="#087cbd" d="M 321.5,144.5 C 320.657,146.173 319.324,147.34 317.5,148C 320.525,146.398 323.858,145.731 327.5,146C 328.099,147.622 328.766,149.122 329.5,150.5C 327.948,153.112 325.614,154.445 322.5,154.5C 322.213,151.516 320.546,150.183 317.5,150.5C 317.714,152.144 317.38,153.644 316.5,155C 312.187,154.755 307.853,154.755 303.5,155C 301,155.671 299.333,157.171 298.5,159.5C 295.61,159.473 294.61,158.307 295.5,156C 304.633,152.927 313.299,149.094 321.5,144.5 Z"/></g>
<g><path style="opacity:1" fill="#221e20" d="M 49.5,147.5 C 55.53,146.165 60.1966,147.998 63.5,153C 61.627,154.085 59.9603,155.418 58.5,157C 54.9748,157.179 51.6414,157.679 48.5,158.5C 47.391,158.557 46.391,158.89 45.5,159.5C 44.5655,158.432 44.2322,157.099 44.5,155.5C 45.1675,152.156 46.8342,149.489 49.5,147.5 Z"/></g>
<g><path style="opacity:1" fill="#bcbbb9" d="M 66.5,150.5 C 66.9807,154.349 65.314,156.349 61.5,156.5C 63.918,155.086 65.5847,153.086 66.5,150.5 Z"/></g>
<g><path style="opacity:1" fill="#352a22" d="M 99.5,150.5 C 99.5,151.5 99.5,152.5 99.5,153.5C 100.5,153.5 101.5,153.5 102.5,153.5C 103.551,154.222 104.218,155.222 104.5,156.5C 102.084,159.034 99.7504,159.034 97.5,156.5C 97.0535,153.99 97.7202,151.99 99.5,150.5 Z"/></g>
<g><path style="opacity:1" fill="#7c7d7f" d="M 175.5,156.5 C 170.301,156.545 164.968,156.879 159.5,157.5C 159.611,156.883 159.944,156.383 160.5,156C 165.519,155.502 170.519,155.668 175.5,156.5 Z"/></g>
<g><path style="opacity:1" fill="#0974a2" d="M 271.5,153.5 C 274.487,153.998 277.487,154.498 280.5,155C 281.056,155.383 281.389,155.883 281.5,156.5C 279.152,156.33 276.818,155.997 274.5,155.5C 272.97,155.36 271.97,154.693 271.5,153.5 Z"/></g>
<g><path style="opacity:1" fill="#d3d2cf" d="M 142.5,131.5 C 144.262,132.262 145.262,133.596 145.5,135.5C 145.322,138.216 144.822,140.883 144,143.5C 141.413,148.261 139.413,153.261 138,158.5C 134.825,164.185 131.659,169.851 128.5,175.5C 127.167,169.833 125.833,164.167 124.5,158.5C 125.209,157.596 126.209,157.263 127.5,157.5C 127.336,160.187 127.503,162.854 128,165.5C 136.798,155.962 141.632,144.629 142.5,131.5 Z"/></g>
<g><path style="opacity:1" fill="#018fce" d="M 207.5,158.5 C 206.107,157.74 204.607,157.074 203,156.5C 199.997,156.743 198.83,158.41 199.5,161.5C 200.833,161.5 202.167,161.5 203.5,161.5C 203.351,162.552 203.517,163.552 204,164.5C 205.011,163.663 206.178,163.33 207.5,163.5C 207.5,165.167 207.5,166.833 207.5,168.5C 210.282,168.773 212.449,170.106 214,172.5C 214.5,172.333 215,172.167 215.5,172C 217.979,168.111 220.312,164.111 222.5,160C 228.188,158.596 233.855,157.43 239.5,156.5C 247.496,157.059 255.496,157.559 263.5,158C 269.911,160.603 276.578,161.936 283.5,162C 291.909,165.038 299.909,168.872 307.5,173.5C 308.292,172.3 308.292,170.967 307.5,169.5C 309.118,171.785 311.118,173.785 313.5,175.5C 315.284,180.898 317.617,185.898 320.5,190.5C 321.162,194.466 321.495,198.466 321.5,202.5C 318.797,202.955 316.13,203.622 313.5,204.5C 310.194,203.837 306.861,203.337 303.5,203C 299.313,200.101 294.647,198.268 289.5,197.5C 285.511,194.1 280.844,192.6 275.5,193C 273.078,190.84 270.244,189.34 267,188.5C 263.096,188.291 259.096,188.624 255,189.5C 252.016,187.312 248.85,186.979 245.5,188.5C 220.409,183.513 196.076,185.846 172.5,195.5C 171.614,194.675 171.281,193.675 171.5,192.5C 173.448,189.071 174.948,185.405 176,181.5C 178.659,179.754 181.492,178.42 184.5,177.5C 187.471,178.389 190.805,178.889 194.5,179C 196.607,176.494 197.44,173.661 197,170.5C 196.617,171.056 196.117,171.389 195.5,171.5C 195.5,171.167 195.5,170.833 195.5,170.5C 196.501,165.829 197.501,161.162 198.5,156.5C 202.373,153.552 205.373,154.219 207.5,158.5 Z"/></g>
<g><path style="opacity:1" fill="#09aedd" d="M 268.5,153.5 C 269.5,153.5 270.5,153.5 271.5,153.5C 271.97,154.693 272.97,155.36 274.5,155.5C 276.818,155.997 279.152,156.33 281.5,156.5C 287.083,157.963 292.416,159.963 297.5,162.5C 300.81,164.801 304.143,167.134 307.5,169.5C 308.292,170.967 308.292,172.3 307.5,173.5C 299.909,168.872 291.909,165.038 283.5,162C 276.578,161.936 269.911,160.603 263.5,158C 255.496,157.559 247.496,157.059 239.5,156.5C 233.855,157.43 228.188,158.596 222.5,160C 220.312,164.111 217.979,168.111 215.5,172C 215,172.167 214.5,172.333 214,172.5C 212.449,170.106 210.282,168.773 207.5,168.5C 207.5,166.833 207.5,165.167 207.5,163.5C 206.178,163.33 205.011,163.663 204,164.5C 203.517,163.552 203.351,162.552 203.5,161.5C 202.167,161.5 200.833,161.5 199.5,161.5C 198.83,158.41 199.997,156.743 203,156.5C 204.607,157.074 206.107,157.74 207.5,158.5C 208.514,160.574 209.514,162.574 210.5,164.5C 211.568,165.434 212.901,165.768 214.5,165.5C 213.99,161.187 214.657,157.187 216.5,153.5C 217.833,153.5 219.167,153.5 220.5,153.5C 236.503,152.235 252.503,152.235 268.5,153.5 Z"/></g>
<g><path style="opacity:0.384" fill="#054163" d="M 331.5,153.5 C 331.737,152.209 331.404,151.209 330.5,150.5C 331.575,148.144 331.575,145.811 330.5,143.5C 327.191,142.001 324.191,142.334 321.5,144.5C 313.299,149.094 304.633,152.927 295.5,156C 294.61,158.307 295.61,159.473 298.5,159.5C 299.209,160.404 300.209,160.737 301.5,160.5C 301.5,160.833 301.5,161.167 301.5,161.5C 299.901,161.232 298.568,161.566 297.5,162.5C 292.416,159.963 287.083,157.963 281.5,156.5C 281.389,155.883 281.056,155.383 280.5,155C 277.487,154.498 274.487,153.998 271.5,153.5C 270.5,153.5 269.5,153.5 268.5,153.5C 267.791,152.596 266.791,152.263 265.5,152.5C 263.852,151.073 261.852,150.24 259.5,150C 260.056,149.617 260.389,149.117 260.5,148.5C 261.167,148.5 261.833,148.5 262.5,148.5C 271.821,150.774 281.154,153.441 290.5,156.5C 301.518,153.106 311.851,148.273 321.5,142C 327.891,138.794 332.224,140.46 334.5,147C 333.868,149.415 332.868,151.582 331.5,153.5 Z"/></g>
<g><path style="opacity:1" fill="#14a1d3" d="M 330.5,150.5 C 330.167,150.5 329.833,150.5 329.5,150.5C 328.766,149.122 328.099,147.622 327.5,146C 323.858,145.731 320.525,146.398 317.5,148C 319.324,147.34 320.657,146.173 321.5,144.5C 324.191,142.334 327.191,142.001 330.5,143.5C 331.575,145.811 331.575,148.144 330.5,150.5 Z"/></g>
<g><path style="opacity:1" fill="#47484b" d="M 179.5,144.5 C 180.167,144.833 180.833,145.167 181.5,145.5C 181.287,148.451 181.954,151.118 183.5,153.5C 181.028,154.642 180.028,156.642 180.5,159.5C 180.672,160.492 180.338,161.158 179.5,161.5C 179.5,160.5 179.5,159.5 179.5,158.5C 175.185,159.797 170.851,161.131 166.5,162.5C 165.873,163.417 165.539,164.417 165.5,165.5C 164.539,167.265 164.205,169.265 164.5,171.5C 163.35,170.15 162.683,170.316 162.5,172C 163.029,173.559 163.696,175.059 164.5,176.5C 161.369,177.273 159.202,175.939 158,172.5C 157.08,169.899 156.413,167.232 156,164.5C 155.617,165.056 155.117,165.389 154.5,165.5C 155.169,162.151 156.836,159.484 159.5,157.5C 164.968,156.879 170.301,156.545 175.5,156.5C 176.261,155.609 177.261,154.942 178.5,154.5C 179.487,151.232 179.82,147.898 179.5,144.5 Z"/></g>
<g><path style="opacity:1" fill="#0b4468" d="M 198.5,156.5 C 197.501,161.162 196.501,165.829 195.5,170.5C 194.834,167.642 194.167,164.642 193.5,161.5C 189.839,164.827 186.172,168.16 182.5,171.5C 186.209,166.169 190.542,161.503 195.5,157.5C 196.609,157.443 197.609,157.11 198.5,156.5 Z"/></g>
<g><path style="opacity:1" fill="#045486" d="M 213.5,155.5 C 213.5,158.5 213.5,161.5 213.5,164.5C 212.5,164.5 211.5,164.5 210.5,164.5C 209.514,162.574 208.514,160.574 207.5,158.5C 205.373,154.219 202.373,153.552 198.5,156.5C 199.957,152.951 202.623,151.784 206.5,153C 208.551,155.16 210.051,157.66 211,160.5C 211.099,158.347 211.933,156.681 213.5,155.5 Z"/></g>
<g><path style="opacity:1" fill="#4a8bbf" d="M 81.5,137.5 C 81.8333,137.5 82.1667,137.5 82.5,137.5C 82.5,137.833 82.5,138.167 82.5,138.5C 78.412,140.18 74.0787,140.847 69.5,140.5C 65.8183,140.335 62.1516,140.501 58.5,141C 49.9255,142.426 44.5921,147.259 42.5,155.5C 41.7321,156.263 41.2321,157.263 41,158.5C 40.3333,163.167 40.3333,167.833 41,172.5C 41.3022,176.245 42.4688,179.578 44.5,182.5C 44.5,182.833 44.5,183.167 44.5,183.5C 44.9787,186.064 45.6453,188.564 46.5,191C 45.1058,190.501 43.7725,189.667 42.5,188.5C 41.7281,187.306 40.7281,186.306 39.5,185.5C 36.0228,178.725 33.3561,171.725 31.5,164.5C 31.5,162.167 31.5,159.833 31.5,157.5C 33.1238,159.151 34.4571,161.151 35.5,163.5C 37.1616,153.265 42.4949,145.765 51.5,141C 61.4728,139.692 71.4728,138.525 81.5,137.5 Z"/></g>
<g><path style="opacity:1" fill="#575a5e" d="M 187.5,149.5 C 188.227,151.954 189.227,154.287 190.5,156.5C 189.698,157.952 189.198,159.618 189,161.5C 187.989,162.337 186.822,162.67 185.5,162.5C 185.5,163.5 185.5,164.5 185.5,165.5C 184.5,165.5 183.5,165.5 182.5,165.5C 182.737,166.791 182.404,167.791 181.5,168.5C 181.5,167.167 181.5,165.833 181.5,164.5C 182.5,164.5 183.5,164.5 184.5,164.5C 184.205,162.265 184.539,160.265 185.5,158.5C 186.209,159.404 187.209,159.737 188.5,159.5C 189.32,155.778 187.987,153.445 184.5,152.5C 185.5,151.5 186.5,150.5 187.5,149.5 Z"/></g>
<g><path style="opacity:1" fill="#027cb5" d="M 216.5,153.5 C 214.657,157.187 213.99,161.187 214.5,165.5C 212.901,165.768 211.568,165.434 210.5,164.5C 211.5,164.5 212.5,164.5 213.5,164.5C 213.5,161.5 213.5,158.5 213.5,155.5C 213.973,154.094 214.973,153.427 216.5,153.5 Z"/></g>
<g><path style="opacity:1" fill="#1f2d3a" d="M 194.5,152.5 C 194.409,154.698 195.075,155.031 196.5,153.5C 196.567,154.959 196.234,156.292 195.5,157.5C 190.542,161.503 186.209,166.169 182.5,171.5C 178.447,173.553 175.447,176.553 173.5,180.5C 173.572,177.447 174.572,174.781 176.5,172.5C 177.782,170.82 179.449,169.487 181.5,168.5C 182.404,167.791 182.737,166.791 182.5,165.5C 183.5,165.5 184.5,165.5 185.5,165.5C 185.5,164.5 185.5,163.5 185.5,162.5C 186.822,162.67 187.989,162.337 189,161.5C 189.198,159.618 189.698,157.952 190.5,156.5C 190.706,158.549 191.539,158.883 193,157.5C 193.198,155.618 193.698,153.952 194.5,152.5 Z"/></g>
<g><path style="opacity:1" fill="#074a7a" d="M 329.5,150.5 C 329.833,150.5 330.167,150.5 330.5,150.5C 326.752,157.084 321.752,162.584 315.5,167C 313.5,167.667 311.5,167.667 309.5,167C 307.027,164.742 304.361,162.908 301.5,161.5C 301.5,161.167 301.5,160.833 301.5,160.5C 306.511,160.666 311.511,160.499 316.5,160C 319.26,158.821 321.26,156.988 322.5,154.5C 325.614,154.445 327.948,153.112 329.5,150.5 Z"/></g>
<g><path style="opacity:1" fill="#4e4e4f" d="M 145.5,123.5 C 157.512,125.275 168.179,129.942 177.5,137.5C 177.5,138.167 177.5,138.833 177.5,139.5C 171.109,133.137 163.442,129.137 154.5,127.5C 154.278,135.247 152.611,142.58 149.5,149.5C 148.861,148.903 148.528,148.07 148.5,147C 150.264,140.923 151.097,134.756 151,128.5C 143.223,157.047 129.39,182.38 109.5,204.5C 106.939,206.64 104.605,208.973 102.5,211.5C 102.383,209.516 103.05,207.85 104.5,206.5C 104.376,205.893 104.043,205.56 103.5,205.5C 106.438,203.066 109.271,200.399 112,197.5C 115.434,192.949 118.601,188.282 121.5,183.5C 123.144,183.19 124.144,182.19 124.5,180.5C 125.434,179.432 125.768,178.099 125.5,176.5C 126.791,176.737 127.791,176.404 128.5,175.5C 131.659,169.851 134.825,164.185 138,158.5C 139.413,153.261 141.413,148.261 144,143.5C 144.822,140.883 145.322,138.216 145.5,135.5C 146.468,133.393 146.802,131.059 146.5,128.5C 147.765,126.643 147.432,124.976 145.5,123.5 Z"/></g>
<g><path style="opacity:1" fill="#aeb0b1" d="M 179.5,161.5 C 180.244,164.95 178.91,166.616 175.5,166.5C 175.01,160.365 174.343,160.199 173.5,166C 173.83,168.341 174.496,170.508 175.5,172.5C 175.167,172.5 174.833,172.5 174.5,172.5C 173.178,172.67 172.011,172.337 171,171.5C 170.587,168.768 169.92,166.101 169,163.5C 168.505,165.473 168.338,167.473 168.5,169.5C 166.088,169.306 165.088,167.973 165.5,165.5C 165.539,164.417 165.873,163.417 166.5,162.5C 170.851,161.131 175.185,159.797 179.5,158.5C 179.5,159.5 179.5,160.5 179.5,161.5 Z"/></g>
<g><path style="opacity:1" fill="#767978" d="M 185.5,158.5 C 184.539,160.265 184.205,162.265 184.5,164.5C 183.5,164.5 182.5,164.5 181.5,164.5C 181.5,165.833 181.5,167.167 181.5,168.5C 179.449,169.487 177.782,170.82 176.5,172.5C 176.167,172.5 175.833,172.5 175.5,172.5C 174.496,170.508 173.83,168.341 173.5,166C 174.343,160.199 175.01,160.365 175.5,166.5C 178.91,166.616 180.244,164.95 179.5,161.5C 180.338,161.158 180.672,160.492 180.5,159.5C 181.458,159.953 182.292,160.619 183,161.5C 183.192,159.423 183.692,157.423 184.5,155.5C 185.386,156.325 185.719,157.325 185.5,158.5 Z"/></g>
<g><path style="opacity:1" fill="#e0f6fa" d="M 39.5,185.5 C 40.7281,186.306 41.7281,187.306 42.5,188.5C 44.9888,193.473 47.9888,198.14 51.5,202.5C 52.5209,206.151 51.5209,206.484 48.5,203.5C 44.4283,199.435 40.7617,195.102 37.5,190.5C 35.3497,183.891 32.5164,177.558 29,171.5C 27.7102,163.198 27.3768,154.865 28,146.5C 28.7005,156.785 30.7005,166.785 34,176.5C 35.3571,179.898 37.1904,182.898 39.5,185.5 Z"/></g>
<g><path style="opacity:1" fill="#7b6e5f" d="M 124.5,158.5 C 125.833,164.167 127.167,169.833 128.5,175.5C 127.791,176.404 126.791,176.737 125.5,176.5C 125.768,178.099 125.434,179.432 124.5,180.5C 123.66,173.139 123.66,165.806 124.5,158.5 Z"/></g>
<g><path style="opacity:1" fill="#8f9092" d="M 161.5,158.5 C 163.527,158.338 165.527,158.505 167.5,159C 162.359,160.638 159.693,164.138 159.5,169.5C 158.054,168.829 157.388,167.662 157.5,166C 158.436,163.295 159.769,160.795 161.5,158.5 Z"/></g>
<g><path style="opacity:0.965" fill="#03304f" d="M 330.5,150.5 C 331.404,151.209 331.737,152.209 331.5,153.5C 330.588,155.595 329.421,157.595 328,159.5C 323.105,163.738 318.271,167.905 313.5,172C 315.25,176.08 317.417,179.913 320,183.5C 321.43,186.353 322.263,189.353 322.5,192.5C 321.833,191.833 321.167,191.167 320.5,190.5C 317.617,185.898 315.284,180.898 313.5,175.5C 311.118,173.785 309.118,171.785 307.5,169.5C 304.143,167.134 300.81,164.801 297.5,162.5C 298.568,161.566 299.901,161.232 301.5,161.5C 304.361,162.908 307.027,164.742 309.5,167C 311.5,167.667 313.5,167.667 315.5,167C 321.752,162.584 326.752,157.084 330.5,150.5 Z"/></g>
<g><path style="opacity:1" fill="#d3d4d6" d="M 177.5,139.5 C 178.537,140.93 179.204,142.597 179.5,144.5C 179.82,147.898 179.487,151.232 178.5,154.5C 177.261,154.942 176.261,155.609 175.5,156.5C 170.519,155.668 165.519,155.502 160.5,156C 159.944,156.383 159.611,156.883 159.5,157.5C 156.836,159.484 155.169,162.151 154.5,165.5C 154.5,167.5 154.5,169.5 154.5,171.5C 154.859,176.857 157.525,180.523 162.5,182.5C 162.663,184.857 162.497,187.19 162,189.5C 160.26,188.284 159.26,186.618 159,184.5C 154.431,180.985 149.264,179.818 143.5,181C 137.863,186.06 132.363,191.227 127,196.5C 126.333,197.833 125.667,199.167 125,200.5C 124.825,204.211 124.325,207.878 123.5,211.5C 121.115,209.955 119.781,207.788 119.5,205C 120.443,201.621 121.776,198.454 123.5,195.5C 125.592,192.319 127.925,189.319 130.5,186.5C 138.286,174.976 144.619,162.643 149.5,149.5C 152.611,142.58 154.278,135.247 154.5,127.5C 163.442,129.137 171.109,133.137 177.5,139.5 Z"/></g>
<g><path style="opacity:1" fill="#818183" d="M 165.5,165.5 C 165.088,167.973 166.088,169.306 168.5,169.5C 169.038,171.117 169.371,172.784 169.5,174.5C 168.078,173.075 166.411,172.075 164.5,171.5C 164.205,169.265 164.539,167.265 165.5,165.5 Z"/></g>
<g><path style="opacity:1" fill="#757067" d="M 42.5,155.5 C 43.1667,155.5 43.8333,155.5 44.5,155.5C 44.2322,157.099 44.5655,158.432 45.5,159.5C 44.906,161.41 44.5726,163.41 44.5,165.5C 45.1706,169.841 45.8373,174.174 46.5,178.5C 46.8333,181.167 47.1667,183.833 47.5,186.5C 46.7281,185.306 45.7281,184.306 44.5,183.5C 44.5,183.167 44.5,182.833 44.5,182.5C 42.7381,173.61 42.0715,164.61 42.5,155.5 Z"/></g>
<g><path style="opacity:1" fill="#535356" d="M 174.5,172.5 C 172.972,173.309 171.306,173.976 169.5,174.5C 169.371,172.784 169.038,171.117 168.5,169.5C 168.338,167.473 168.505,165.473 169,163.5C 169.92,166.101 170.587,168.768 171,171.5C 172.011,172.337 173.178,172.67 174.5,172.5 Z"/></g>
<g><path style="opacity:1" fill="#065587" d="M 195.5,170.5 C 195.5,170.833 195.5,171.167 195.5,171.5C 194.542,171.953 193.708,172.619 193,173.5C 192.396,167.549 191.229,167.216 189.5,172.5C 187.64,173.939 185.973,175.605 184.5,177.5C 181.492,178.42 178.659,179.754 176,181.5C 174.948,185.405 173.448,189.071 171.5,192.5C 168.906,196.435 165.906,200.101 162.5,203.5C 165.623,197.931 168.79,192.264 172,186.5C 172.505,184.482 173.005,182.482 173.5,180.5C 175.447,176.553 178.447,173.553 182.5,171.5C 186.172,168.16 189.839,164.827 193.5,161.5C 194.167,164.642 194.834,167.642 195.5,170.5 Z"/></g>
<g><path style="opacity:1" fill="#aea499" d="M 124.5,158.5 C 123.66,165.806 123.66,173.139 124.5,180.5C 124.144,182.19 123.144,183.19 121.5,183.5C 121.549,176.151 121.882,168.817 122.5,161.5C 123.167,160.5 123.833,159.5 124.5,158.5 Z"/></g>
<g><path style="opacity:1" fill="#0679ab" d="M 195.5,171.5 C 195.475,174.179 194.142,175.512 191.5,175.5C 191.715,173.821 191.048,172.821 189.5,172.5C 191.229,167.216 192.396,167.549 193,173.5C 193.708,172.619 194.542,171.953 195.5,171.5 Z"/></g>
<g><path style="opacity:1" fill="#0eaddb" d="M 184.5,177.5 C 185.973,175.605 187.64,173.939 189.5,172.5C 191.048,172.821 191.715,173.821 191.5,175.5C 194.142,175.512 195.475,174.179 195.5,171.5C 196.117,171.389 196.617,171.056 197,170.5C 197.44,173.661 196.607,176.494 194.5,179C 190.805,178.889 187.471,178.389 184.5,177.5 Z"/></g>
<g><path style="opacity:1" fill="#5a7e9a" d="M 42.5,155.5 C 42.0715,164.61 42.7381,173.61 44.5,182.5C 42.4688,179.578 41.3022,176.245 41,172.5C 40.3333,167.833 40.3333,163.167 41,158.5C 41.2321,157.263 41.7321,156.263 42.5,155.5 Z"/></g>
<g><path style="opacity:1" fill="#b8b9bc" d="M 162.5,182.5 C 164.175,188.058 163.508,193.392 160.5,198.5C 157.338,205.988 152.671,212.321 146.5,217.5C 134.774,222.736 125.608,219.736 119,208.5C 117.381,202.968 118.881,198.634 123.5,195.5C 121.776,198.454 120.443,201.621 119.5,205C 119.781,207.788 121.115,209.955 123.5,211.5C 124.325,207.878 124.825,204.211 125,200.5C 125.667,199.167 126.333,197.833 127,196.5C 132.363,191.227 137.863,186.06 143.5,181C 149.264,179.818 154.431,180.985 159,184.5C 159.26,186.618 160.26,188.284 162,189.5C 162.497,187.19 162.663,184.857 162.5,182.5 Z"/></g>
<g><path style="opacity:1" fill="#0178c3" d="M 320.5,190.5 C 321.167,191.167 321.833,191.833 322.5,192.5C 323.73,201.648 323.73,210.648 322.5,219.5C 323.053,209.367 321.887,209.033 319,218.5C 316.347,221.194 313.18,222.027 309.5,221C 308.702,217.9 307.035,215.4 304.5,213.5C 302.701,212.212 301.035,212.212 299.5,213.5C 295.098,213.772 290.765,213.439 286.5,212.5C 282.061,214.313 277.395,215.479 272.5,216C 270.751,217.292 268.918,218.458 267,219.5C 266.505,221.473 266.338,223.473 266.5,225.5C 262.062,224.425 260.062,226.092 260.5,230.5C 259.969,232.544 258.802,234.211 257,235.5C 256.088,240.464 255.588,245.464 255.5,250.5C 255.802,253.059 255.468,255.393 254.5,257.5C 254.5,256.5 254.5,255.5 254.5,254.5C 238.423,256.19 222.423,255.69 206.5,253C 205.95,250.842 204.95,250.342 203.5,251.5C 204.294,248.198 204.96,244.865 205.5,241.5C 206.43,237.6 206.763,233.6 206.5,229.5C 203.759,229.293 201.426,228.293 199.5,226.5C 200.376,226.631 201.043,226.298 201.5,225.5C 199.31,223.476 196.977,221.643 194.5,220C 191.798,219.393 189.132,219.56 186.5,220.5C 182.009,218.783 177.343,218.117 172.5,218.5C 171.59,221.411 169.59,223.411 166.5,224.5C 166.167,224 165.833,223.5 165.5,223C 166.707,221.7 167.374,220.2 167.5,218.5C 162.425,218.649 157.425,219.315 152.5,220.5C 153.148,218.914 153.648,217.247 154,215.5C 156.594,213.296 158.428,210.63 159.5,207.5C 159.738,205.596 160.738,204.262 162.5,203.5C 165.906,200.101 168.906,196.435 171.5,192.5C 171.281,193.675 171.614,194.675 172.5,195.5C 196.076,185.846 220.409,183.513 245.5,188.5C 248.85,186.979 252.016,187.312 255,189.5C 259.096,188.624 263.096,188.291 267,188.5C 270.244,189.34 273.078,190.84 275.5,193C 280.844,192.6 285.511,194.1 289.5,197.5C 294.647,198.268 299.313,200.101 303.5,203C 306.861,203.337 310.194,203.837 313.5,204.5C 316.13,203.622 318.797,202.955 321.5,202.5C 321.495,198.466 321.162,194.466 320.5,190.5 Z"/></g>
<g><path style="opacity:1" fill="#dcd8d4" d="M 48.5,158.5 C 52.1667,158.5 55.8333,158.5 59.5,158.5C 56.0381,159.482 52.3714,159.815 48.5,159.5C 53.2956,187.734 69.2956,197.234 96.5,188C 107.769,181.565 116.436,172.732 122.5,161.5C 121.882,168.817 121.549,176.151 121.5,183.5C 118.601,188.282 115.434,192.949 112,197.5C 109.271,200.399 106.438,203.066 103.5,205.5C 100.621,207.438 97.6214,209.105 94.5,210.5C 92.0248,211.131 89.6915,212.131 87.5,213.5C 86.1667,213.5 84.8333,213.5 83.5,213.5C 82.5,213.5 81.5,213.5 80.5,213.5C 77.1691,212.385 73.8358,211.051 70.5,209.5C 58.4344,202.394 50.4344,192.061 46.5,178.5C 45.8373,174.174 45.1706,169.841 44.5,165.5C 44.5726,163.41 44.906,161.41 45.5,159.5C 46.391,158.89 47.391,158.557 48.5,158.5 Z"/></g>
<g><path style="opacity:1" fill="#7e7e80" d="M 154.5,171.5 C 157.537,178.353 162.871,181.019 170.5,179.5C 168.288,185.238 165.788,190.904 163,196.5C 162.292,197.381 161.458,198.047 160.5,198.5C 163.508,193.392 164.175,188.058 162.5,182.5C 157.525,180.523 154.859,176.857 154.5,171.5 Z"/></g>
<g><path style="opacity:1" fill="#242d34" d="M 164.5,171.5 C 166.411,172.075 168.078,173.075 169.5,174.5C 171.306,173.976 172.972,173.309 174.5,172.5C 174.833,172.5 175.167,172.5 175.5,172.5C 175.833,172.5 176.167,172.5 176.5,172.5C 174.572,174.781 173.572,177.447 173.5,180.5C 173.005,182.482 172.505,184.482 172,186.5C 168.79,192.264 165.623,197.931 162.5,203.5C 160.738,204.262 159.738,205.596 159.5,207.5C 155.101,211.568 151.435,216.235 148.5,221.5C 147.761,221.369 147.094,221.536 146.5,222C 144.361,224.478 142.361,226.978 140.5,229.5C 134.469,235.374 128.135,241.041 121.5,246.5C 120.268,247.145 118.935,247.311 117.5,247C 116.577,249.041 116.244,251.208 116.5,253.5C 114.5,253.5 112.5,253.5 110.5,253.5C 110.167,253.5 109.833,253.5 109.5,253.5C 111.328,252.717 112.661,251.384 113.5,249.5C 115.234,246.8 117.568,244.8 120.5,243.5C 125.148,239.705 129.481,235.705 133.5,231.5C 138.54,227.461 142.873,222.794 146.5,217.5C 152.671,212.321 157.338,205.988 160.5,198.5C 161.458,198.047 162.292,197.381 163,196.5C 165.788,190.904 168.288,185.238 170.5,179.5C 162.871,181.019 157.537,178.353 154.5,171.5C 154.5,169.5 154.5,167.5 154.5,165.5C 155.117,165.389 155.617,165.056 156,164.5C 156.413,167.232 157.08,169.899 158,172.5C 159.202,175.939 161.369,177.273 164.5,176.5C 163.696,175.059 163.029,173.559 162.5,172C 162.683,170.316 163.35,170.15 164.5,171.5 Z"/></g>
<g><path style="opacity:0.251" fill="#236483" d="M 34.5,192.5 C 36.9971,193.129 38.3304,194.796 38.5,197.5C 36.9373,196.055 35.604,194.389 34.5,192.5 Z"/></g>
<g><path style="opacity:1" fill="#548cb1" d="M 44.5,183.5 C 45.7281,184.306 46.7281,185.306 47.5,186.5C 51.6133,195.289 57.6133,202.623 65.5,208.5C 59.0244,207.841 59.0244,209.008 65.5,212C 66.8825,213.271 67.8825,214.771 68.5,216.5C 61.9298,212.93 56.2631,208.263 51.5,202.5C 47.9888,198.14 44.9888,193.473 42.5,188.5C 43.7725,189.667 45.1058,190.501 46.5,191C 45.6453,188.564 44.9787,186.064 44.5,183.5 Z"/></g>
<g><path style="opacity:0.373" fill="#266582" d="M 38.5,197.5 C 40.5311,198.539 41.8645,200.205 42.5,202.5C 40.457,201.421 39.1237,199.754 38.5,197.5 Z"/></g>
<g><path style="opacity:0.984" fill="#54acd4" d="M 23.5,148.5 C 24.1667,148.833 24.8333,149.167 25.5,149.5C 25.185,153.371 25.5184,157.038 26.5,160.5C 26.8242,171.799 30.4908,181.799 37.5,190.5C 40.7617,195.102 44.4283,199.435 48.5,203.5C 48.4142,204.496 48.7476,205.329 49.5,206C 54.1185,208.95 58.4518,212.284 62.5,216C 68.3213,220.541 74.6546,224.041 81.5,226.5C 82.3382,226.842 82.6716,227.508 82.5,228.5C 81.1667,228.5 79.8333,228.5 78.5,228.5C 76.0911,225.295 72.7577,223.628 68.5,223.5C 68.0269,222.094 67.0269,221.427 65.5,221.5C 65.0269,220.094 64.0269,219.427 62.5,219.5C 61.4042,216.227 59.0709,214.561 55.5,214.5C 54.0892,212.086 52.0892,210.419 49.5,209.5C 48.4154,207.413 46.7488,206.08 44.5,205.5C 43.8333,204.5 43.1667,203.5 42.5,202.5C 41.8645,200.205 40.5311,198.539 38.5,197.5C 38.3304,194.796 36.9971,193.129 34.5,192.5C 25.1738,179.195 21.5071,164.529 23.5,148.5 Z"/></g>
<g><path style="opacity:1" fill="#7e827b" d="M 46.5,178.5 C 50.4344,192.061 58.4344,202.394 70.5,209.5C 69.8333,209.5 69.1667,209.5 68.5,209.5C 67.609,208.89 66.609,208.557 65.5,208.5C 57.6133,202.623 51.6133,195.289 47.5,186.5C 47.1667,183.833 46.8333,181.167 46.5,178.5 Z"/></g>
<g><path style="opacity:0.243" fill="#134c5e" d="M 44.5,205.5 C 46.7488,206.08 48.4154,207.413 49.5,209.5C 47.2512,208.92 45.5846,207.587 44.5,205.5 Z"/></g>
<g><path style="opacity:0.725" fill="#2a718a" d="M 49.5,209.5 C 52.0892,210.419 54.0892,212.086 55.5,214.5C 52.9108,213.581 50.9108,211.914 49.5,209.5 Z"/></g>
<g><path style="opacity:1" fill="#98999b" d="M 109.5,204.5 C 109.489,206.017 108.823,207.184 107.5,208C 107.728,208.399 108.062,208.565 108.5,208.5C 103.096,215.41 97.0957,221.91 90.5,228C 86.5657,230.221 85.899,229.721 88.5,226.5C 89.8333,224.833 91.1667,223.167 92.5,221.5C 96.8333,219.167 100.167,215.833 102.5,211.5C 104.605,208.973 106.939,206.64 109.5,204.5 Z"/></g>
<g><path style="opacity:1" fill="#5e5f61" d="M 130.5,186.5 C 127.925,189.319 125.592,192.319 123.5,195.5C 118.881,198.634 117.381,202.968 119,208.5C 125.608,219.736 134.774,222.736 146.5,217.5C 142.873,222.794 138.54,227.461 133.5,231.5C 134.057,229.051 134.057,226.718 133.5,224.5C 125.158,220.665 117.158,216.331 109.5,211.5C 112.064,208.952 114.564,206.285 117,203.5C 117.605,201.365 117.105,201.031 115.5,202.5C 120.028,196.951 124.528,191.284 129,185.5C 130.107,184.288 130.607,184.621 130.5,186.5 Z"/></g>
<g><path style="opacity:1" fill="#842328" d="M 94.5,210.5 C 95.8333,210.5 97.1667,210.5 98.5,210.5C 98.6567,211.873 98.49,213.207 98,214.5C 96.1881,216.3 94.3548,217.967 92.5,219.5C 91.609,220.11 90.609,220.443 89.5,220.5C 89.5,220.167 89.5,219.833 89.5,219.5C 92.0442,218.292 93.3775,216.292 93.5,213.5C 92.5,213.5 91.5,213.5 90.5,213.5C 89.5,213.5 88.5,213.5 87.5,213.5C 89.6915,212.131 92.0248,211.131 94.5,210.5 Z"/></g>
<g><path style="opacity:1" fill="#503331" d="M 103.5,205.5 C 104.043,205.56 104.376,205.893 104.5,206.5C 103.05,207.85 102.383,209.516 102.5,211.5C 100.167,215.833 96.8333,219.167 92.5,221.5C 92.5,220.833 92.5,220.167 92.5,219.5C 94.3548,217.967 96.1881,216.3 98,214.5C 98.49,213.207 98.6567,211.873 98.5,210.5C 97.1667,210.5 95.8333,210.5 94.5,210.5C 97.6214,209.105 100.621,207.438 103.5,205.5 Z"/></g>
<g><path style="opacity:0.914" fill="#3183a9" d="M 55.5,214.5 C 59.0709,214.561 61.4042,216.227 62.5,219.5C 59.6298,218.567 57.2964,216.9 55.5,214.5 Z"/></g>
<g><path style="opacity:1" fill="#4788bd" d="M 65.5,208.5 C 66.609,208.557 67.609,208.89 68.5,209.5C 71.2466,212.207 74.5799,213.873 78.5,214.5C 78.5,216.167 78.5,217.833 78.5,219.5C 77.1667,219.5 75.8333,219.5 74.5,219.5C 72.0586,219.25 70.0586,218.25 68.5,216.5C 67.8825,214.771 66.8825,213.271 65.5,212C 59.0244,209.008 59.0244,207.841 65.5,208.5 Z"/></g>
<g><path style="opacity:1" fill="#c81e1f" d="M 90.5,213.5 C 91.5,213.5 92.5,213.5 93.5,213.5C 93.3775,216.292 92.0442,218.292 89.5,219.5C 88.5,219.5 87.5,219.5 86.5,219.5C 86.6574,216.682 87.9908,214.682 90.5,213.5 Z"/></g>
<g><path style="opacity:1" fill="#6287a4" d="M 68.5,209.5 C 69.1667,209.5 69.8333,209.5 70.5,209.5C 73.8358,211.051 77.1691,212.385 80.5,213.5C 80.5,216.167 80.5,218.833 80.5,221.5C 78.1016,221.741 76.1016,221.074 74.5,219.5C 75.8333,219.5 77.1667,219.5 78.5,219.5C 78.5,217.833 78.5,216.167 78.5,214.5C 74.5799,213.873 71.2466,212.207 68.5,209.5 Z"/></g>
<g><path style="opacity:1" fill="#9c1e1c" d="M 87.5,213.5 C 88.5,213.5 89.5,213.5 90.5,213.5C 87.9908,214.682 86.6574,216.682 86.5,219.5C 87.5,219.5 88.5,219.5 89.5,219.5C 89.5,219.833 89.5,220.167 89.5,220.5C 84.8775,221.592 83.0442,219.925 84,215.5C 85.3024,214.915 86.469,214.249 87.5,213.5 Z"/></g>
<g><path style="opacity:1" fill="#484b4e" d="M 109.5,211.5 C 103.281,218.597 96.614,225.264 89.5,231.5C 88.2921,232.234 86.9587,232.567 85.5,232.5C 84.3646,230.787 82.698,230.12 80.5,230.5C 79.5,230.167 78.8333,229.5 78.5,228.5C 79.8333,228.5 81.1667,228.5 82.5,228.5C 83.3382,228.158 83.6716,227.492 83.5,226.5C 85.1667,226.5 86.8333,226.5 88.5,226.5C 85.899,229.721 86.5657,230.221 90.5,228C 97.0957,221.91 103.096,215.41 108.5,208.5C 110.833,206.5 113.167,204.5 115.5,202.5C 117.105,201.031 117.605,201.365 117,203.5C 114.564,206.285 112.064,208.952 109.5,211.5 Z"/></g>
<g><path style="opacity:1" fill="#3c1824" d="M 80.5,213.5 C 81.5,213.5 82.5,213.5 83.5,213.5C 82.5975,216.391 82.2641,219.391 82.5,222.5C 81.8333,222.167 81.1667,221.833 80.5,221.5C 80.5,218.833 80.5,216.167 80.5,213.5 Z"/></g>
<g><path style="opacity:1" fill="#0487c9" d="M 299.5,213.5 C 298.933,215.03 298.267,216.53 297.5,218C 292.856,217.709 288.189,217.709 283.5,218C 283.167,218.333 282.833,218.667 282.5,219C 283.305,220.113 283.972,221.279 284.5,222.5C 287.584,223.256 289.251,225.256 289.5,228.5C 287.5,228.833 285.5,229.167 283.5,229.5C 283.714,227.856 283.38,226.356 282.5,225C 279.394,224.721 276.561,224.888 274,225.5C 272.688,222.762 270.522,221.428 267.5,221.5C 267.5,223.167 267.5,224.833 267.5,226.5C 265.801,226.34 264.134,226.506 262.5,227C 261.748,227.671 261.414,228.504 261.5,229.5C 261.5,230.167 261.167,230.5 260.5,230.5C 260.062,226.092 262.062,224.425 266.5,225.5C 266.338,223.473 266.505,221.473 267,219.5C 268.918,218.458 270.751,217.292 272.5,216C 277.395,215.479 282.061,214.313 286.5,212.5C 290.765,213.439 295.098,213.772 299.5,213.5 Z"/></g>
<g><path style="opacity:1" fill="#b5ebf8" d="M 51.5,202.5 C 56.2631,208.263 61.9298,212.93 68.5,216.5C 70.0586,218.25 72.0586,219.25 74.5,219.5C 76.1016,221.074 78.1016,221.741 80.5,221.5C 81.038,223.117 81.3713,224.784 81.5,226.5C 74.6546,224.041 68.3213,220.541 62.5,216C 58.4518,212.284 54.1185,208.95 49.5,206C 48.7476,205.329 48.4142,204.496 48.5,203.5C 51.5209,206.484 52.5209,206.151 51.5,202.5 Z"/></g>
<g><path style="opacity:0.204" fill="#174d66" d="M 62.5,219.5 C 64.0269,219.427 65.0269,220.094 65.5,221.5C 63.9731,221.573 62.9731,220.906 62.5,219.5 Z"/></g>
<g><path style="opacity:0.169" fill="#0e3355" d="M 65.5,221.5 C 67.0269,221.427 68.0269,222.094 68.5,223.5C 66.9731,223.573 65.9731,222.906 65.5,221.5 Z"/></g>
<g><path style="opacity:1" fill="#0d9cd0" d="M 322.5,219.5 C 317.411,228.38 311.744,228.713 305.5,220.5C 304.878,217.224 302.878,215.891 299.5,216.5C 299.5,217.833 299.5,219.167 299.5,220.5C 296.128,219.599 292.795,219.599 289.5,220.5C 292.073,221.808 294.74,222.808 297.5,223.5C 299.23,224.026 300.564,225.026 301.5,226.5C 296.001,223.91 290.334,222.577 284.5,222.5C 283.972,221.279 283.305,220.113 282.5,219C 282.833,218.667 283.167,218.333 283.5,218C 288.189,217.709 292.856,217.709 297.5,218C 298.267,216.53 298.933,215.03 299.5,213.5C 301.035,212.212 302.701,212.212 304.5,213.5C 307.035,215.4 308.702,217.9 309.5,221C 313.18,222.027 316.347,221.194 319,218.5C 321.887,209.033 323.053,209.367 322.5,219.5 Z"/></g>
<g><path style="opacity:1" fill="#065d8f" d="M 305.5,220.5 C 304.05,219.342 303.05,219.842 302.5,222C 300.618,222.198 298.952,222.698 297.5,223.5C 294.74,222.808 292.073,221.808 289.5,220.5C 292.795,219.599 296.128,219.599 299.5,220.5C 299.5,219.167 299.5,217.833 299.5,216.5C 302.878,215.891 304.878,217.224 305.5,220.5 Z"/></g>
<g><path style="opacity:1" fill="#490f10" d="M 83.5,213.5 C 84.8333,213.5 86.1667,213.5 87.5,213.5C 86.469,214.249 85.3024,214.915 84,215.5C 83.0442,219.925 84.8775,221.592 89.5,220.5C 90.609,220.443 91.609,220.11 92.5,219.5C 92.5,220.167 92.5,220.833 92.5,221.5C 89.5026,222.833 86.5026,224.166 83.5,225.5C 82.596,224.791 82.2627,223.791 82.5,222.5C 82.2641,219.391 82.5975,216.391 83.5,213.5 Z"/></g>
<g><path style="opacity:1" fill="#38282f" d="M 92.5,221.5 C 91.1667,223.167 89.8333,224.833 88.5,226.5C 86.8333,226.5 85.1667,226.5 83.5,226.5C 83.5,226.167 83.5,225.833 83.5,225.5C 86.5026,224.166 89.5026,222.833 92.5,221.5 Z"/></g>
<g><path style="opacity:0.573" fill="#1f5a72" d="M 68.5,223.5 C 72.7577,223.628 76.0911,225.295 78.5,228.5C 74.701,227.579 71.3677,225.912 68.5,223.5 Z"/></g>
<g><path style="opacity:1" fill="#848496" d="M 80.5,221.5 C 81.1667,221.833 81.8333,222.167 82.5,222.5C 82.2627,223.791 82.596,224.791 83.5,225.5C 83.5,225.833 83.5,226.167 83.5,226.5C 83.6716,227.492 83.3382,228.158 82.5,228.5C 82.6716,227.508 82.3382,226.842 81.5,226.5C 81.3713,224.784 81.038,223.117 80.5,221.5 Z"/></g>
<g><path style="opacity:1" fill="#013459" d="M 305.5,220.5 C 305.338,222.527 305.505,224.527 306,226.5C 307.385,227.551 308.385,228.884 309,230.5C 309.499,234.152 309.665,237.818 309.5,241.5C 308.391,241.557 307.391,241.89 306.5,242.5C 306.666,238.486 306.499,234.486 306,230.5C 305.252,228.249 303.752,226.916 301.5,226.5C 300.564,225.026 299.23,224.026 297.5,223.5C 298.952,222.698 300.618,222.198 302.5,222C 303.05,219.842 304.05,219.342 305.5,220.5 Z"/></g>
<g><path style="opacity:1" fill="#065588" d="M 159.5,207.5 C 158.428,210.63 156.594,213.296 154,215.5C 153.648,217.247 153.148,218.914 152.5,220.5C 151.15,221.824 151.317,222.824 153,223.5C 155.497,222.751 157.997,222.084 160.5,221.5C 161.412,222.738 161.579,224.072 161,225.5C 158.943,227.269 157.11,229.269 155.5,231.5C 154.914,231.291 154.414,230.957 154,230.5C 152.739,233.211 150.906,235.378 148.5,237C 145.974,238.259 143.641,238.259 141.5,237C 142.448,236.517 143.448,236.351 144.5,236.5C 142.555,231.618 143.721,227.618 148,224.5C 148.483,223.552 148.649,222.552 148.5,221.5C 151.435,216.235 155.101,211.568 159.5,207.5 Z"/></g>
<g><path style="opacity:1" fill="#035892" d="M 199.5,226.5 C 201.426,228.293 203.759,229.293 206.5,229.5C 206.763,233.6 206.43,237.6 205.5,241.5C 204.37,239.332 204.37,236.998 205.5,234.5C 205.547,233 204.881,232 203.5,231.5C 202.05,232.655 201.05,234.155 200.5,236C 199.234,236.309 198.067,236.809 197,237.5C 196.505,239.473 196.338,241.473 196.5,243.5C 196.672,244.492 196.338,245.158 195.5,245.5C 195.716,241.941 195.382,238.441 194.5,235C 194.836,233.97 195.503,233.47 196.5,233.5C 198.344,232.796 198.844,231.463 198,229.5C 196.743,227.321 195.243,225.321 193.5,223.5C 193.833,223.167 194.167,222.833 194.5,222.5C 196.186,223.857 197.852,225.19 199.5,226.5 Z"/></g>
<g><path style="opacity:1" fill="#10a8d3" d="M 163.5,233.5 C 166.532,230.485 170.199,228.818 174.5,228.5C 177.969,229.113 179.969,227.779 180.5,224.5C 178.897,224.688 177.563,224.188 176.5,223C 180.998,221.523 183.165,223.023 183,227.5C 181.095,228.158 179.595,229.325 178.5,231C 175.768,231.413 173.101,232.08 170.5,233C 169.663,234.011 169.33,235.178 169.5,236.5C 167.143,236.663 164.81,236.497 162.5,236C 163.252,235.329 163.586,234.496 163.5,233.5 Z"/></g>
<g><path style="opacity:1" fill="#068dcb" d="M 284.5,222.5 C 290.334,222.577 296.001,223.91 301.5,226.5C 303.752,226.916 305.252,228.249 306,230.5C 306.499,234.486 306.666,238.486 306.5,242.5C 305.168,246.162 303.835,249.828 302.5,253.5C 299.281,259.06 295.281,264.06 290.5,268.5C 290.833,268.833 291.167,269.167 291.5,269.5C 294.264,268.239 296.597,266.405 298.5,264C 299.549,263.508 300.549,263.674 301.5,264.5C 302.518,263.807 303.518,263.141 304.5,262.5C 311.121,255.089 319.121,253.422 328.5,257.5C 329.298,257.043 329.631,256.376 329.5,255.5C 330.833,256.167 331.833,257.167 332.5,258.5C 332.243,262.171 331.243,265.505 329.5,268.5C 327.712,268.785 326.045,268.452 324.5,267.5C 323.687,266.186 322.687,265.019 321.5,264C 317.857,263.028 314.19,262.194 310.5,261.5C 307.483,263.85 304.817,266.517 302.5,269.5C 298.944,268.083 295.944,268.916 293.5,272C 290.497,273.31 287.497,273.476 284.5,272.5C 283.572,271.232 283.405,269.899 284,268.5C 287.06,265.393 289.894,262.059 292.5,258.5C 292.833,257.167 293.167,255.833 293.5,254.5C 293.109,250.271 292.109,246.271 290.5,242.5C 285.482,242.613 280.482,242.947 275.5,243.5C 274.833,241.5 274.167,239.5 273.5,237.5C 275.461,235.202 276.461,232.535 276.5,229.5C 275.127,229.343 273.793,229.51 272.5,230C 269.477,232.589 266.81,235.422 264.5,238.5C 263.679,235.554 263.679,232.554 264.5,229.5C 263.5,229.5 262.5,229.5 261.5,229.5C 261.414,228.504 261.748,227.671 262.5,227C 264.134,226.506 265.801,226.34 267.5,226.5C 267.5,224.833 267.5,223.167 267.5,221.5C 270.522,221.428 272.688,222.762 274,225.5C 276.561,224.888 279.394,224.721 282.5,225C 283.38,226.356 283.714,227.856 283.5,229.5C 285.5,229.167 287.5,228.833 289.5,228.5C 289.251,225.256 287.584,223.256 284.5,222.5 Z"/></g>
<g><path style="opacity:1" fill="#818283" d="M 109.5,211.5 C 117.158,216.331 125.158,220.665 133.5,224.5C 134.057,226.718 134.057,229.051 133.5,231.5C 129.481,235.705 125.148,239.705 120.5,243.5C 120.44,242.957 120.107,242.624 119.5,242.5C 116.198,245.049 112.531,245.882 108.5,245C 103.813,242.301 99.1466,239.634 94.5,237C 92.7455,235.064 91.0789,233.23 89.5,231.5C 96.614,225.264 103.281,218.597 109.5,211.5 Z"/></g>
<g><path style="opacity:1" fill="#064871" d="M 148.5,221.5 C 148.649,222.552 148.483,223.552 148,224.5C 143.721,227.618 142.555,231.618 144.5,236.5C 143.448,236.351 142.448,236.517 141.5,237C 143.641,238.259 145.974,238.259 148.5,237C 150.906,235.378 152.739,233.211 154,230.5C 154.414,230.957 154.914,231.291 155.5,231.5C 157.11,229.269 158.943,227.269 161,225.5C 161.579,224.072 161.412,222.738 160.5,221.5C 161.833,221.5 163.167,221.5 164.5,221.5C 164.08,223.674 164.08,225.674 164.5,227.5C 169.006,225.616 173.673,225.116 178.5,226C 177.142,226.934 175.808,227.768 174.5,228.5C 170.199,228.818 166.532,230.485 163.5,233.5C 162.5,233.833 161.833,234.5 161.5,235.5C 159.896,236.287 159.229,237.62 159.5,239.5C 161.199,239.34 162.866,239.506 164.5,240C 164.043,240.414 163.709,240.914 163.5,241.5C 166.012,242.795 168.679,243.461 171.5,243.5C 172.5,243.5 173.5,243.5 174.5,243.5C 174.611,244.117 174.944,244.617 175.5,245C 171.49,245.357 167.49,245.19 163.5,244.5C 162.766,243.292 162.433,241.959 162.5,240.5C 160.856,240.714 159.356,240.38 158,239.5C 157.416,230.422 155.916,230.255 153.5,239C 150.5,239.333 147.5,239.667 144.5,240C 143.748,240.671 143.414,241.504 143.5,242.5C 141.847,242.34 140.514,241.674 139.5,240.5C 143.5,240.167 143.5,239.833 139.5,239.5C 139.674,236.155 138.341,234.988 135.5,236C 137.79,234.223 139.457,232.056 140.5,229.5C 142.361,226.978 144.361,224.478 146.5,222C 147.094,221.536 147.761,221.369 148.5,221.5 Z"/></g>
<g><path style="opacity:1" fill="#045388" d="M 261.5,229.5 C 262.5,229.5 263.5,229.5 264.5,229.5C 263.679,232.554 263.679,235.554 264.5,238.5C 266.81,235.422 269.477,232.589 272.5,230C 273.793,229.51 275.127,229.343 276.5,229.5C 276.461,232.535 275.461,235.202 273.5,237.5C 270.623,245.116 269.789,253.116 271,261.5C 273.023,263.769 273.856,266.436 273.5,269.5C 270.348,265.492 268.681,260.825 268.5,255.5C 268.431,249.747 268.598,244.081 269,238.5C 267.383,239.851 266.216,241.518 265.5,243.5C 264.833,243.167 264.167,242.833 263.5,242.5C 262.833,239.833 262.167,237.167 261.5,234.5C 260.043,236.275 258.876,238.275 258,240.5C 257.974,244.179 257.14,247.512 255.5,250.5C 255.588,245.464 256.088,240.464 257,235.5C 258.802,234.211 259.969,232.544 260.5,230.5C 261.167,230.5 261.5,230.167 261.5,229.5 Z"/></g>
<g><path style="opacity:1" fill="#075080" d="M 322.5,219.5 C 321.53,229.425 317.863,238.092 311.5,245.5C 310.295,244.423 309.628,243.09 309.5,241.5C 309.665,237.818 309.499,234.152 309,230.5C 308.385,228.884 307.385,227.551 306,226.5C 305.505,224.527 305.338,222.527 305.5,220.5C 311.744,228.713 317.411,228.38 322.5,219.5 Z"/></g>
<g><path style="opacity:1" fill="#075584" d="M 161.5,235.5 C 164.355,237.25 167.689,238.083 171.5,238C 169.779,238.739 168.113,239.573 166.5,240.5C 168.36,241.325 170.026,242.325 171.5,243.5C 168.679,243.461 166.012,242.795 163.5,241.5C 163.709,240.914 164.043,240.414 164.5,240C 162.866,239.506 161.199,239.34 159.5,239.5C 159.229,237.62 159.896,236.287 161.5,235.5 Z"/></g>
<g><path style="opacity:1" fill="#aeafb1" d="M 89.5,231.5 C 91.0789,233.23 92.7455,235.064 94.5,237C 99.1466,239.634 103.813,242.301 108.5,245C 112.531,245.882 116.198,245.049 119.5,242.5C 120.107,242.624 120.44,242.957 120.5,243.5C 117.568,244.8 115.234,246.8 113.5,249.5C 108.157,251.054 103.157,250.221 98.5,247C 94.0253,244.186 89.8586,241.019 86,237.5C 84.5456,235.756 84.3789,234.089 85.5,232.5C 86.9587,232.567 88.2921,232.234 89.5,231.5 Z"/></g>
<g><path style="opacity:0.992" fill="#2e3030" d="M 80.5,230.5 C 82.698,230.12 84.3646,230.787 85.5,232.5C 84.3789,234.089 84.5456,235.756 86,237.5C 89.8586,241.019 94.0253,244.186 98.5,247C 103.157,250.221 108.157,251.054 113.5,249.5C 112.661,251.384 111.328,252.717 109.5,253.5C 108.833,253.5 108.167,253.5 107.5,253.5C 104.996,251.874 102.33,251.541 99.5,252.5C 93.3183,249.492 87.8183,245.492 83,240.5C 80.9937,237.464 80.1604,234.131 80.5,230.5 Z"/></g>
<g><path style="opacity:1" fill="#1987ae" d="M 139.5,240.5 C 140.514,241.674 141.847,242.34 143.5,242.5C 140.353,243.74 137.02,244.74 133.5,245.5C 132.614,244.675 132.281,243.675 132.5,242.5C 134.438,240.837 136.772,240.171 139.5,240.5 Z"/></g>
<g><path style="opacity:1" fill="#032d4a" d="M 163.5,244.5 C 157.833,244.5 152.167,244.5 146.5,244.5C 145.222,244.218 144.222,243.551 143.5,242.5C 143.414,241.504 143.748,240.671 144.5,240C 147.5,239.667 150.5,239.333 153.5,239C 155.916,230.255 157.416,230.422 158,239.5C 159.356,240.38 160.856,240.714 162.5,240.5C 162.433,241.959 162.766,243.292 163.5,244.5 Z"/></g>
<g><path style="opacity:1" fill="#1274a0" d="M 174.5,243.5 C 176.048,243.821 176.715,244.821 176.5,246.5C 166.503,246.084 156.503,245.75 146.5,245.5C 146.5,245.167 146.5,244.833 146.5,244.5C 152.167,244.5 157.833,244.5 163.5,244.5C 167.49,245.19 171.49,245.357 175.5,245C 174.944,244.617 174.611,244.117 174.5,243.5 Z"/></g>
<g><path style="opacity:1" fill="#07304d" d="M 140.5,229.5 C 139.457,232.056 137.79,234.223 135.5,236C 138.341,234.988 139.674,236.155 139.5,239.5C 143.5,239.833 143.5,240.167 139.5,240.5C 136.772,240.171 134.438,240.837 132.5,242.5C 129.908,244.036 128.908,246.369 129.5,249.5C 130.5,249.5 131.5,249.5 132.5,249.5C 132.232,251.099 132.566,252.432 133.5,253.5C 133.833,253.5 134.167,253.5 134.5,253.5C 134.5,254.167 134.5,254.833 134.5,255.5C 131.71,255.778 129.21,255.111 127,253.5C 124.79,255.111 122.29,255.778 119.5,255.5C 118.793,258.786 118.46,262.119 118.5,265.5C 117.778,265.082 117.278,264.416 117,263.5C 116.503,260.854 116.336,258.187 116.5,255.5C 113.99,255.946 111.99,255.28 110.5,253.5C 112.5,253.5 114.5,253.5 116.5,253.5C 116.244,251.208 116.577,249.041 117.5,247C 118.935,247.311 120.268,247.145 121.5,246.5C 128.135,241.041 134.469,235.374 140.5,229.5 Z"/></g>
<g><path style="opacity:1" fill="#05497a" d="M 132.5,242.5 C 132.281,243.675 132.614,244.675 133.5,245.5C 137.02,244.74 140.353,243.74 143.5,242.5C 144.222,243.551 145.222,244.218 146.5,244.5C 146.5,244.833 146.5,245.167 146.5,245.5C 141.959,244.769 137.959,245.769 134.5,248.5C 133.691,250.071 133.357,251.738 133.5,253.5C 132.566,252.432 132.232,251.099 132.5,249.5C 131.5,249.5 130.5,249.5 129.5,249.5C 128.908,246.369 129.908,244.036 132.5,242.5 Z"/></g>
<g><path style="opacity:1" fill="#058fcc" d="M 199.5,226.5 C 197.852,225.19 196.186,223.857 194.5,222.5C 194.167,222.833 193.833,223.167 193.5,223.5C 195.243,225.321 196.743,227.321 198,229.5C 198.844,231.463 198.344,232.796 196.5,233.5C 195.878,232.373 195.045,231.373 194,230.5C 193.29,231.973 192.124,232.64 190.5,232.5C 192.146,237.959 191.812,243.292 189.5,248.5C 184.672,250.421 179.672,251.921 174.5,253C 173.833,253.667 173.167,254.333 172.5,255C 173.823,255.816 174.489,256.983 174.5,258.5C 172.076,258.192 169.743,258.526 167.5,259.5C 165.36,262.734 162.694,263.234 159.5,261C 156.82,253.602 151.486,250.102 143.5,250.5C 143.5,249.167 143.5,247.833 143.5,246.5C 136.862,246.413 135.862,248.746 140.5,253.5C 138.5,253.5 136.5,253.5 134.5,253.5C 134.167,253.5 133.833,253.5 133.5,253.5C 133.357,251.738 133.691,250.071 134.5,248.5C 137.959,245.769 141.959,244.769 146.5,245.5C 156.503,245.75 166.503,246.084 176.5,246.5C 176.715,244.821 176.048,243.821 174.5,243.5C 173.5,243.5 172.5,243.5 171.5,243.5C 170.026,242.325 168.36,241.325 166.5,240.5C 168.113,239.573 169.779,238.739 171.5,238C 167.689,238.083 164.355,237.25 161.5,235.5C 161.833,234.5 162.5,233.833 163.5,233.5C 163.586,234.496 163.252,235.329 162.5,236C 164.81,236.497 167.143,236.663 169.5,236.5C 169.33,235.178 169.663,234.011 170.5,233C 173.101,232.08 175.768,231.413 178.5,231C 179.595,229.325 181.095,228.158 183,227.5C 183.165,223.023 180.998,221.523 176.5,223C 177.563,224.188 178.897,224.688 180.5,224.5C 179.969,227.779 177.969,229.113 174.5,228.5C 175.808,227.768 177.142,226.934 178.5,226C 173.673,225.116 169.006,225.616 164.5,227.5C 164.08,225.674 164.08,223.674 164.5,221.5C 163.167,221.5 161.833,221.5 160.5,221.5C 157.997,222.084 155.497,222.751 153,223.5C 151.317,222.824 151.15,221.824 152.5,220.5C 157.425,219.315 162.425,218.649 167.5,218.5C 167.374,220.2 166.707,221.7 165.5,223C 165.833,223.5 166.167,224 166.5,224.5C 169.59,223.411 171.59,221.411 172.5,218.5C 177.343,218.117 182.009,218.783 186.5,220.5C 189.132,219.56 191.798,219.393 194.5,220C 196.977,221.643 199.31,223.476 201.5,225.5C 201.043,226.298 200.376,226.631 199.5,226.5 Z"/></g>
<g><path style="opacity:0.518" fill="#032a45" d="M 322.5,192.5 C 328.472,213.006 325.139,232.006 312.5,249.5C 316.647,250.167 320.647,250.834 324.5,251.5C 320.154,251.334 315.821,251.501 311.5,252C 310.584,252.278 309.918,252.778 309.5,253.5C 308.29,253.932 307.29,254.599 306.5,255.5C 304.743,256.292 303.409,257.625 302.5,259.5C 301.481,257.54 301.481,255.54 302.5,253.5C 303.835,249.828 305.168,246.162 306.5,242.5C 307.391,241.89 308.391,241.557 309.5,241.5C 309.628,243.09 310.295,244.423 311.5,245.5C 317.863,238.092 321.53,229.425 322.5,219.5C 323.73,210.648 323.73,201.648 322.5,192.5 Z"/></g>
<g><path style="opacity:1" fill="#0aaedd" d="M 174.5,258.5 C 170.965,260.008 167.631,262.008 164.5,264.5C 163.702,264.957 163.369,265.624 163.5,266.5C 161.712,266.785 160.045,266.452 158.5,265.5C 157.145,263.479 155.479,261.812 153.5,260.5C 151.109,254.801 146.776,252.468 140.5,253.5C 135.862,248.746 136.862,246.413 143.5,246.5C 143.5,247.833 143.5,249.167 143.5,250.5C 151.486,250.102 156.82,253.602 159.5,261C 162.694,263.234 165.36,262.734 167.5,259.5C 169.743,258.526 172.076,258.192 174.5,258.5 Z"/></g>
<g><path style="opacity:0.637" fill="#085f81" d="M 324.5,251.5 C 324.5,251.833 324.5,252.167 324.5,252.5C 319.463,252.413 314.463,252.746 309.5,253.5C 309.918,252.778 310.584,252.278 311.5,252C 315.821,251.501 320.154,251.334 324.5,251.5 Z"/></g>
<g><path style="opacity:1" fill="#0377bd" d="M 196.5,233.5 C 195.503,233.47 194.836,233.97 194.5,235C 195.382,238.441 195.716,241.941 195.5,245.5C 193.582,247.379 191.749,249.379 190,251.5C 188.615,255.223 186.781,258.723 184.5,262C 179.914,262.197 175.414,262.697 171,263.5C 170.601,263.272 170.435,262.938 170.5,262.5C 171.609,261.71 172.942,261.21 174.5,261C 175.774,260.023 175.774,259.189 174.5,258.5C 174.489,256.983 173.823,255.816 172.5,255C 173.167,254.333 173.833,253.667 174.5,253C 179.672,251.921 184.672,250.421 189.5,248.5C 191.812,243.292 192.146,237.959 190.5,232.5C 192.124,232.64 193.29,231.973 194,230.5C 195.045,231.373 195.878,232.373 196.5,233.5 Z"/></g>
<g><path style="opacity:1" fill="#0faad4" d="M 324.5,252.5 C 325.965,253.737 327.632,254.737 329.5,255.5C 329.631,256.376 329.298,257.043 328.5,257.5C 319.121,253.422 311.121,255.089 304.5,262.5C 304.394,259.921 305.061,257.588 306.5,255.5C 307.29,254.599 308.29,253.932 309.5,253.5C 314.463,252.746 319.463,252.413 324.5,252.5 Z"/></g>
<g><path style="opacity:1" fill="#0f1a25" d="M 134.5,255.5 C 135.585,257.587 137.251,258.92 139.5,259.5C 138.432,260.434 137.099,260.768 135.5,260.5C 131.19,259.92 126.857,259.586 122.5,259.5C 120.384,261.088 120.051,263.088 121.5,265.5C 124.738,267.275 127.738,269.275 130.5,271.5C 125.785,270.751 121.785,268.751 118.5,265.5C 118.46,262.119 118.793,258.786 119.5,255.5C 122.29,255.778 124.79,255.111 127,253.5C 129.21,255.111 131.71,255.778 134.5,255.5 Z"/></g>
<g><path style="opacity:1" fill="#074f7d" d="M 195.5,245.5 C 193.914,248.257 192.914,251.257 192.5,254.5C 188.938,261.066 183.605,265.4 176.5,267.5C 174.956,267.21 173.623,266.544 172.5,265.5C 171.222,269.043 169.222,272.043 166.5,274.5C 166.928,271.436 167.594,268.436 168.5,265.5C 168.932,264.29 169.599,263.29 170.5,262.5C 170.435,262.938 170.601,263.272 171,263.5C 175.414,262.697 179.914,262.197 184.5,262C 186.781,258.723 188.615,255.223 190,251.5C 191.749,249.379 193.582,247.379 195.5,245.5 Z"/></g>
<g><path style="opacity:1" fill="#7b7e7f" d="M 122.5,259.5 C 126.857,259.586 131.19,259.92 135.5,260.5C 135.5,261.167 135.833,261.5 136.5,261.5C 136.611,262.117 136.944,262.617 137.5,263C 135.866,263.494 134.199,263.66 132.5,263.5C 130.167,263.5 127.833,263.5 125.5,263.5C 124.5,262.167 123.5,260.833 122.5,259.5 Z"/></g>
<g><path style="opacity:1" fill="#02426e" d="M 268.5,255.5 C 267.677,252.023 267.177,248.356 267,244.5C 266.072,246.335 264.906,246.668 263.5,245.5C 263.167,246.333 262.833,247.167 262.5,248C 262.943,249.825 263.277,251.658 263.5,253.5C 262.883,253.611 262.383,253.944 262,254.5C 261.64,252.392 260.973,250.392 260,248.5C 259.667,251.833 259.333,255.167 259,258.5C 258.167,259.333 257.333,260.167 256.5,261C 252.235,262.015 247.902,262.515 243.5,262.5C 232.837,261.928 222.17,261.428 211.5,261C 207.863,260.68 204.529,259.514 201.5,257.5C 201.957,256.702 202.624,256.369 203.5,256.5C 204.5,256.5 205.5,256.5 206.5,256.5C 212.253,258.067 218.253,258.9 224.5,259C 234.342,259.825 244.009,259.658 253.5,258.5C 254.167,258.5 254.5,258.167 254.5,257.5C 255.468,255.393 255.802,253.059 255.5,250.5C 257.14,247.512 257.974,244.179 258,240.5C 258.876,238.275 260.043,236.275 261.5,234.5C 262.167,237.167 262.833,239.833 263.5,242.5C 264.167,242.833 264.833,243.167 265.5,243.5C 266.216,241.518 267.383,239.851 269,238.5C 268.598,244.081 268.431,249.747 268.5,255.5 Z"/></g>
<g><path style="opacity:1" fill="#0492c9" d="M 174.5,258.5 C 175.774,259.189 175.774,260.023 174.5,261C 172.942,261.21 171.609,261.71 170.5,262.5C 169.599,263.29 168.932,264.29 168.5,265.5C 166.784,265.629 165.117,265.962 163.5,266.5C 163.369,265.624 163.702,264.957 164.5,264.5C 167.631,262.008 170.965,260.008 174.5,258.5 Z"/></g>
<g><path style="opacity:1" fill="#054c7a" d="M 134.5,253.5 C 136.5,253.5 138.5,253.5 140.5,253.5C 146.776,252.468 151.109,254.801 153.5,260.5C 153.833,261.833 154.167,263.167 154.5,264.5C 153.412,266 152.079,267.333 150.5,268.5C 153.342,269.004 154.675,270.671 154.5,273.5C 151.386,272.909 148.886,271.242 147,268.5C 146.063,265.344 144.563,262.511 142.5,260C 141.552,259.517 140.552,259.351 139.5,259.5C 137.251,258.92 135.585,257.587 134.5,255.5C 134.5,254.833 134.5,254.167 134.5,253.5 Z"/></g>
<g><path style="opacity:1" fill="#035286" d="M 205.5,241.5 C 204.96,244.865 204.294,248.198 203.5,251.5C 202.28,253.05 202.28,254.716 203.5,256.5C 202.624,256.369 201.957,256.702 201.5,257.5C 204.529,259.514 207.863,260.68 211.5,261C 222.17,261.428 232.837,261.928 243.5,262.5C 247.902,262.515 252.235,262.015 256.5,261C 257.333,260.167 258.167,259.333 259,258.5C 259.333,255.167 259.667,251.833 260,248.5C 260.973,250.392 261.64,252.392 262,254.5C 262.383,253.944 262.883,253.611 263.5,253.5C 265.257,260.61 264.257,267.277 260.5,273.5C 259.167,273.5 257.833,273.5 256.5,273.5C 250.85,272.992 245.183,273.492 239.5,275C 224.17,275.5 208.837,275.667 193.5,275.5C 191.143,275.663 188.81,275.497 186.5,275C 185.941,274.275 185.608,273.442 185.5,272.5C 187.911,267.354 191.077,262.687 195,258.5C 197.893,252.965 200.727,247.465 203.5,242C 202.874,241.25 202.374,240.416 202,239.5C 201.692,240.308 201.192,240.975 200.5,241.5C 199.719,240.271 199.219,238.938 199,237.5C 197.981,239.502 197.148,241.502 196.5,243.5C 196.338,241.473 196.505,239.473 197,237.5C 198.067,236.809 199.234,236.309 200.5,236C 201.05,234.155 202.05,232.655 203.5,231.5C 204.881,232 205.547,233 205.5,234.5C 204.37,236.998 204.37,239.332 205.5,241.5 Z"/></g>
<g><path style="opacity:1" fill="#04689e" d="M 206.5,256.5 C 222.129,257.96 237.795,258.627 253.5,258.5C 244.009,259.658 234.342,259.825 224.5,259C 218.253,258.9 212.253,258.067 206.5,256.5 Z"/></g>
<g><path style="opacity:1" fill="#0c8ecc" d="M 254.5,257.5 C 254.5,258.167 254.167,258.5 253.5,258.5C 237.795,258.627 222.129,257.96 206.5,256.5C 205.5,256.5 204.5,256.5 203.5,256.5C 202.28,254.716 202.28,253.05 203.5,251.5C 204.95,250.342 205.95,250.842 206.5,253C 222.423,255.69 238.423,256.19 254.5,254.5C 254.5,255.5 254.5,256.5 254.5,257.5 Z"/></g>
<g><path style="opacity:1" fill="#02365a" d="M 268.5,255.5 C 268.681,260.825 270.348,265.492 273.5,269.5C 274.11,270.391 274.443,271.391 274.5,272.5C 273.012,271.061 271.178,270.395 269,270.5C 266.455,272.186 263.622,273.186 260.5,273.5C 264.257,267.277 265.257,260.61 263.5,253.5C 263.277,251.658 262.943,249.825 262.5,248C 262.833,247.167 263.167,246.333 263.5,245.5C 264.906,246.668 266.072,246.335 267,244.5C 267.177,248.356 267.677,252.023 268.5,255.5 Z"/></g>
<g><path style="opacity:0.741" fill="#042f47" d="M 324.5,251.5 C 333.543,252.878 339.543,257.878 342.5,266.5C 339.745,264.572 337.411,262.072 335.5,259C 334.552,258.517 333.552,258.351 332.5,258.5C 331.833,257.167 330.833,256.167 329.5,255.5C 327.632,254.737 325.965,253.737 324.5,252.5C 324.5,252.167 324.5,251.833 324.5,251.5 Z"/></g>
<g><path style="opacity:1" fill="#08243c" d="M 107.5,253.5 C 99.7964,252.312 97.1297,255.312 99.5,262.5C 101.042,263.747 102.542,263.747 104,262.5C 104.513,263.527 105.013,264.527 105.5,265.5C 105.608,267.514 104.942,269.18 103.5,270.5C 102.876,270.917 102.543,271.584 102.5,272.5C 103.651,274.325 104.318,276.325 104.5,278.5C 105.449,279.152 106.615,279.486 108,279.5C 110.454,279.241 112.454,278.241 114,276.5C 117.015,278.088 119.515,280.255 121.5,283C 120.944,283.383 120.611,283.883 120.5,284.5C 118.15,283.006 115.65,281.673 113,280.5C 103.119,282.619 99.2856,278.786 101.5,269C 98.5093,266.628 96.176,263.628 94.5,260C 95.5892,257.084 97.2558,254.584 99.5,252.5C 102.33,251.541 104.996,251.874 107.5,253.5 Z"/></g>
<g><path style="opacity:1" fill="#4d4f53" d="M 136.5,261.5 C 140.107,261.565 142.44,263.231 143.5,266.5C 139.712,265.615 136.046,264.615 132.5,263.5C 134.199,263.66 135.866,263.494 137.5,263C 136.944,262.617 136.611,262.117 136.5,261.5 Z"/></g>
<g><path style="opacity:1" fill="#075080" d="M 107.5,253.5 C 108.167,253.5 108.833,253.5 109.5,253.5C 109.833,253.5 110.167,253.5 110.5,253.5C 111.99,255.28 113.99,255.946 116.5,255.5C 116.336,258.187 116.503,260.854 117,263.5C 117.278,264.416 117.778,265.082 118.5,265.5C 121.785,268.751 125.785,270.751 130.5,271.5C 132.082,273.374 134.082,274.707 136.5,275.5C 136.201,278.642 134.534,280.809 131.5,282C 128.649,283.289 125.649,283.789 122.5,283.5C 122.33,282.178 122.663,281.011 123.5,280C 115.503,277.49 109.503,272.657 105.5,265.5C 105.013,264.527 104.513,263.527 104,262.5C 102.542,263.747 101.042,263.747 99.5,262.5C 97.1297,255.312 99.7964,252.312 107.5,253.5 Z"/></g>
<g><path style="opacity:1" fill="#147eb9" d="M 102.5,254.5 C 103.833,254.5 105.167,254.5 106.5,254.5C 106.5,255.5 106.5,256.5 106.5,257.5C 104.105,258.363 101.771,258.363 99.5,257.5C 100.34,256.265 101.34,255.265 102.5,254.5 Z"/></g>
<g><path style="opacity:1" fill="#034371" d="M 302.5,253.5 C 301.481,255.54 301.481,257.54 302.5,259.5C 303.409,257.625 304.743,256.292 306.5,255.5C 305.061,257.588 304.394,259.921 304.5,262.5C 303.518,263.141 302.518,263.807 301.5,264.5C 300.549,263.674 299.549,263.508 298.5,264C 296.597,266.405 294.264,268.239 291.5,269.5C 291.167,269.167 290.833,268.833 290.5,268.5C 295.281,264.06 299.281,259.06 302.5,253.5 Z"/></g>
<g><path style="opacity:1" fill="#0377c2" d="M 273.5,237.5 C 274.167,239.5 274.833,241.5 275.5,243.5C 280.482,242.947 285.482,242.613 290.5,242.5C 292.109,246.271 293.109,250.271 293.5,254.5C 293.167,255.833 292.833,257.167 292.5,258.5C 289.894,262.059 287.06,265.393 284,268.5C 283.405,269.899 283.572,271.232 284.5,272.5C 287.497,273.476 290.497,273.31 293.5,272C 295.944,268.916 298.944,268.083 302.5,269.5C 304.817,266.517 307.483,263.85 310.5,261.5C 314.19,262.194 317.857,263.028 321.5,264C 322.687,265.019 323.687,266.186 324.5,267.5C 326.045,268.452 327.712,268.785 329.5,268.5C 324.831,273.961 318.831,277.128 311.5,278C 301.59,280.541 291.59,281.041 281.5,279.5C 281.205,275.871 279.205,273.871 275.5,273.5C 274.833,273.5 274.5,273.167 274.5,272.5C 274.443,271.391 274.11,270.391 273.5,269.5C 273.856,266.436 273.023,263.769 271,261.5C 269.789,253.116 270.623,245.116 273.5,237.5 Z"/></g>
<g><path style="opacity:1" fill="#201316" d="M 125.5,263.5 C 127.833,263.5 130.167,263.5 132.5,263.5C 136.046,264.615 139.712,265.615 143.5,266.5C 144.167,267.5 144.833,268.5 145.5,269.5C 143.4,269.477 141.567,270.144 140,271.5C 134.179,270.761 129.013,268.594 124.5,265C 125.056,264.617 125.389,264.117 125.5,263.5 Z"/></g>
<g><path style="opacity:1" fill="#043659" d="M 193.5,275.5 C 193.5,275.833 193.5,276.167 193.5,276.5C 186.991,276.873 180.991,275.373 175.5,272C 183.796,268.748 190.296,263.248 195,255.5C 195.831,250.517 194.998,250.183 192.5,254.5C 192.914,251.257 193.914,248.257 195.5,245.5C 196.338,245.158 196.672,244.492 196.5,243.5C 197.148,241.502 197.981,239.502 199,237.5C 199.219,238.938 199.719,240.271 200.5,241.5C 201.192,240.975 201.692,240.308 202,239.5C 202.374,240.416 202.874,241.25 203.5,242C 200.727,247.465 197.893,252.965 195,258.5C 191.077,262.687 187.911,267.354 185.5,272.5C 185.608,273.442 185.941,274.275 186.5,275C 188.81,275.497 191.143,275.663 193.5,275.5 Z"/></g>
<g><path style="opacity:1" fill="#055488" d="M 332.5,258.5 C 333.552,258.351 334.552,258.517 335.5,259C 337.411,262.072 339.745,264.572 342.5,266.5C 343.498,273.138 343.665,279.805 343,286.5C 342.147,288.125 341.147,288.458 340,287.5C 338.622,294.959 334.122,297.793 326.5,296C 324.224,293.53 321.557,291.697 318.5,290.5C 318.389,289.883 318.056,289.383 317.5,289C 319.5,288.667 321.5,288.333 323.5,288C 325.091,285.867 327.091,284.201 329.5,283C 330.687,281.981 331.687,280.814 332.5,279.5C 327.135,279.669 321.802,280.836 316.5,283C 308.841,283.5 301.174,283.666 293.5,283.5C 285.419,283.711 279.419,280.378 275.5,273.5C 279.205,273.871 281.205,275.871 281.5,279.5C 291.59,281.041 301.59,280.541 311.5,278C 318.831,277.128 324.831,273.961 329.5,268.5C 331.243,265.505 332.243,262.171 332.5,258.5 Z"/></g>
<g><path style="opacity:1" fill="#082034" d="M 193.5,276.5 C 197.519,276.646 201.519,276.979 205.5,277.5C 220.334,279.903 235.334,279.903 250.5,277.5C 254.504,278.006 258.171,279.34 261.5,281.5C 263.028,282.309 264.694,282.976 266.5,283.5C 267.347,284.966 268.68,285.8 270.5,286C 273.482,286.498 276.482,286.665 279.5,286.5C 269.811,287.996 260.811,285.83 252.5,280C 227.107,281.132 201.774,280.299 176.5,277.5C 175.265,275.043 173.265,273.71 170.5,273.5C 170.5,274.5 170.5,275.5 170.5,276.5C 167.423,276.347 164.589,277.014 162,278.5C 159.79,277.978 157.623,277.312 155.5,276.5C 153.865,277.046 152.199,277.38 150.5,277.5C 150.5,276.5 150.5,275.5 150.5,274.5C 147.341,274.43 145.674,272.763 145.5,269.5C 144.833,268.5 144.167,267.5 143.5,266.5C 142.44,263.231 140.107,261.565 136.5,261.5C 135.833,261.5 135.5,261.167 135.5,260.5C 137.099,260.768 138.432,260.434 139.5,259.5C 140.552,259.351 141.552,259.517 142.5,260C 144.563,262.511 146.063,265.344 147,268.5C 148.886,271.242 151.386,272.909 154.5,273.5C 155.568,274.434 156.901,274.768 158.5,274.5C 161.167,275.833 163.833,275.833 166.5,274.5C 169.222,272.043 171.222,269.043 172.5,265.5C 173.623,266.544 174.956,267.21 176.5,267.5C 183.605,265.4 188.938,261.066 192.5,254.5C 194.998,250.183 195.831,250.517 195,255.5C 190.296,263.248 183.796,268.748 175.5,272C 180.991,275.373 186.991,276.873 193.5,276.5 Z"/></g>
<g><path style="opacity:1" fill="#06538e" d="M 154.5,264.5 C 156.054,265.914 157.388,267.581 158.5,269.5C 167.589,271.397 167.589,273.063 158.5,274.5C 156.901,274.768 155.568,274.434 154.5,273.5C 154.675,270.671 153.342,269.004 150.5,268.5C 152.079,267.333 153.412,266 154.5,264.5 Z"/></g>
<g><path style="opacity:1" fill="#076296" d="M 153.5,260.5 C 155.479,261.812 157.145,263.479 158.5,265.5C 160.045,266.452 161.712,266.785 163.5,266.5C 165.117,265.962 166.784,265.629 168.5,265.5C 167.594,268.436 166.928,271.436 166.5,274.5C 163.833,275.833 161.167,275.833 158.5,274.5C 167.589,273.063 167.589,271.397 158.5,269.5C 157.388,267.581 156.054,265.914 154.5,264.5C 154.167,263.167 153.833,261.833 153.5,260.5 Z"/></g>
<g><path style="opacity:1" fill="#0a5282" d="M 103.5,270.5 C 107.598,271.6 109.932,274.266 110.5,278.5C 108.5,278.5 106.5,278.5 104.5,278.5C 104.318,276.325 103.651,274.325 102.5,272.5C 102.543,271.584 102.876,270.917 103.5,270.5 Z"/></g>
<g><path style="opacity:1" fill="#0c5583" d="M 256.5,273.5 C 251.869,275.716 246.869,276.883 241.5,277C 229.505,277.5 217.505,277.667 205.5,277.5C 201.519,276.979 197.519,276.646 193.5,276.5C 193.5,276.167 193.5,275.833 193.5,275.5C 208.837,275.667 224.17,275.5 239.5,275C 245.183,273.492 250.85,272.992 256.5,273.5 Z"/></g>
<g><path style="opacity:0.872" fill="#032843" d="M 274.5,272.5 C 274.5,273.167 274.833,273.5 275.5,273.5C 279.419,280.378 285.419,283.711 293.5,283.5C 295.075,285.886 296.075,288.553 296.5,291.5C 295.833,291.5 295.167,291.5 294.5,291.5C 293.825,289.482 292.659,287.816 291,286.5C 287.185,285.439 283.351,285.439 279.5,286.5C 276.482,286.665 273.482,286.498 270.5,286C 268.68,285.8 267.347,284.966 266.5,283.5C 270.466,284.162 274.466,284.495 278.5,284.5C 279.573,283.749 279.74,282.749 279,281.5C 273.278,274.557 266.778,273.723 259.5,279C 260.381,279.708 261.047,280.542 261.5,281.5C 258.171,279.34 254.504,278.006 250.5,277.5C 235.334,279.903 220.334,279.903 205.5,277.5C 217.505,277.667 229.505,277.5 241.5,277C 246.869,276.883 251.869,275.716 256.5,273.5C 257.833,273.5 259.167,273.5 260.5,273.5C 263.622,273.186 266.455,272.186 269,270.5C 271.178,270.395 273.012,271.061 274.5,272.5 Z"/></g>
<g><path style="opacity:0.99" fill="#073355" d="M 105.5,265.5 C 109.503,272.657 115.503,277.49 123.5,280C 122.663,281.011 122.33,282.178 122.5,283.5C 125.649,283.789 128.649,283.289 131.5,282C 134.534,280.809 136.201,278.642 136.5,275.5C 137.376,275.369 138.043,275.702 138.5,276.5C 136.829,279.492 134.829,282.159 132.5,284.5C 128.5,284.5 124.5,284.5 120.5,284.5C 120.611,283.883 120.944,283.383 121.5,283C 119.515,280.255 117.015,278.088 114,276.5C 112.454,278.241 110.454,279.241 108,279.5C 106.615,279.486 105.449,279.152 104.5,278.5C 106.5,278.5 108.5,278.5 110.5,278.5C 109.932,274.266 107.598,271.6 103.5,270.5C 104.942,269.18 105.608,267.514 105.5,265.5 Z"/></g>
<g><path style="opacity:0.81" fill="#262727" d="M 122.5,259.5 C 123.5,260.833 124.5,262.167 125.5,263.5C 125.389,264.117 125.056,264.617 124.5,265C 129.013,268.594 134.179,270.761 140,271.5C 141.567,270.144 143.4,269.477 145.5,269.5C 145.674,272.763 147.341,274.43 150.5,274.5C 150.5,275.5 150.5,276.5 150.5,277.5C 152.199,277.38 153.865,277.046 155.5,276.5C 157.623,277.312 159.79,277.978 162,278.5C 164.589,277.014 167.423,276.347 170.5,276.5C 170.5,275.5 170.5,274.5 170.5,273.5C 173.265,273.71 175.265,275.043 176.5,277.5C 176.047,278.458 175.381,279.292 174.5,280C 164.563,282.274 154.896,281.774 145.5,278.5C 142.11,277.409 139.11,275.576 136.5,273C 134.482,272.495 132.482,271.995 130.5,271.5C 127.738,269.275 124.738,267.275 121.5,265.5C 120.051,263.088 120.384,261.088 122.5,259.5 Z"/></g>
<g><path style="opacity:0.369" fill="#091b2b" d="M 130.5,271.5 C 132.482,271.995 134.482,272.495 136.5,273C 139.11,275.576 142.11,277.409 145.5,278.5C 143.801,278.34 142.134,278.506 140.5,279C 138.296,281.594 135.63,283.428 132.5,284.5C 134.829,282.159 136.829,279.492 138.5,276.5C 138.043,275.702 137.376,275.369 136.5,275.5C 134.082,274.707 132.082,273.374 130.5,271.5 Z"/></g>
<g><path style="opacity:1" fill="#063d61" d="M 278.5,284.5 C 278.586,283.504 278.252,282.671 277.5,282C 275.667,281.833 273.833,281.667 272,281.5C 269.705,281.547 267.871,282.213 266.5,283.5C 264.694,282.976 263.028,282.309 261.5,281.5C 261.047,280.542 260.381,279.708 259.5,279C 266.778,273.723 273.278,274.557 279,281.5C 279.74,282.749 279.573,283.749 278.5,284.5 Z"/></g>
<g><path style="opacity:1" fill="#0e5f93" d="M 278.5,284.5 C 274.466,284.495 270.466,284.162 266.5,283.5C 267.871,282.213 269.705,281.547 272,281.5C 273.833,281.667 275.667,281.833 277.5,282C 278.252,282.671 278.586,283.504 278.5,284.5 Z"/></g>
<g><path style="opacity:1" fill="#043658" d="M 318.5,290.5 C 316.896,291.287 316.229,292.62 316.5,294.5C 314.533,294.739 312.699,294.406 311,293.5C 310.498,290.487 309.998,287.487 309.5,284.5C 306.1,284.731 304.1,286.564 303.5,290C 301.323,291.202 298.989,291.702 296.5,291.5C 296.075,288.553 295.075,285.886 293.5,283.5C 301.174,283.666 308.841,283.5 316.5,283C 321.802,280.836 327.135,279.669 332.5,279.5C 331.687,280.814 330.687,281.981 329.5,283C 327.091,284.201 325.091,285.867 323.5,288C 321.5,288.333 319.5,288.667 317.5,289C 318.056,289.383 318.389,289.883 318.5,290.5 Z"/></g>
<g><path style="opacity:0.742" fill="#051c2a" d="M 120.5,284.5 C 124.5,284.5 128.5,284.5 132.5,284.5C 128.45,286.96 124.45,286.96 120.5,284.5 Z"/></g>
<g><path style="opacity:0.106" fill="#061f33" d="M 342.5,266.5 C 344.641,271.523 345.974,276.857 346.5,282.5C 344.96,288.214 341.96,293.047 337.5,297C 335.801,297.958 333.967,298.458 332,298.5C 325.269,296.983 318.435,296.149 311.5,296C 309.372,294.377 308.039,292.211 307.5,289.5C 303.555,293.771 299.221,294.438 294.5,291.5C 295.167,291.5 295.833,291.5 296.5,291.5C 298.989,291.702 301.323,291.202 303.5,290C 304.1,286.564 306.1,284.731 309.5,284.5C 309.998,287.487 310.498,290.487 311,293.5C 312.699,294.406 314.533,294.739 316.5,294.5C 316.229,292.62 316.896,291.287 318.5,290.5C 321.557,291.697 324.224,293.53 326.5,296C 334.122,297.793 338.622,294.959 340,287.5C 341.147,288.458 342.147,288.125 343,286.5C 343.665,279.805 343.498,273.138 342.5,266.5 Z"/></g>
</svg>
